<svg width="25" height="28" viewBox="0 0 25 28" fill="none" xmlns="http://www.w3.org/2000/svg">
<rect width="25" height="28" fill="#969696"/>
<path d="M-373 -580C-373 -581.105 -372.105 -582 -371 -582H9625C9626.1 -582 9627 -581.105 9627 -580V1354C9627 1355.1 9626.1 1356 9625 1356H-371C-372.105 1356 -373 1355.1 -373 1354V-580Z" fill="#444444"/>
<path d="M-371 -581H9625V-583H-371V-581ZM9626 -580V1354H9628V-580H9626ZM9625 1355H-371V1357H9625V1355ZM-372 1354V-580H-374V1354H-372ZM-371 1355C-371.552 1355 -372 1354.55 -372 1354H-374C-374 1355.66 -372.657 1357 -371 1357V1355ZM9626 1354C9626 1354.55 9625.55 1355 9625 1355V1357C9626.66 1357 9628 1355.66 9628 1354H9626ZM9625 -581C9625.55 -581 9626 -580.552 9626 -580H9628C9628 -581.657 9626.66 -583 9625 -583V-581ZM-371 -583C-372.657 -583 -374 -581.657 -374 -580H-372C-372 -580.552 -371.552 -581 -371 -581V-583Z" fill="white" fill-opacity="0.1"/>
<g clip-path="url(#clip0_23_10622)">
<rect width="1440" height="1242" transform="translate(-170 -305)" fill="white"/>
<rect x="-130" y="-265" width="1360" height="368" rx="8" fill="#FAFAFA"/>
<path d="M22.8238 6.88504C21.487 6.59909 20.2765 5.89363 19.3687 4.87151C18.461 3.84939 17.9035 2.56405 17.7774 1.20285V0.612549H13.1661V18.9133C13.1632 19.7235 12.9066 20.5125 12.4322 21.1693C11.9579 21.8261 11.2896 22.3178 10.5214 22.5752C9.75319 22.8327 8.92362 22.843 8.14927 22.6046C7.37492 22.3663 6.6947 21.8913 6.20422 21.2464C5.70612 20.5908 5.42981 19.7935 5.41536 18.9702C5.40091 18.147 5.64907 17.3405 6.12386 16.6678C6.59865 15.995 7.27538 15.491 8.05591 15.2288C8.83645 14.9666 9.68022 14.9599 10.4649 15.2095V10.5246C8.71516 10.2827 6.93362 10.5938 5.36943 11.4143C3.80523 12.2348 2.53662 13.5237 1.74103 15.1007C0.945446 16.6777 0.662679 18.464 0.932282 20.2096C1.20189 21.9552 2.01038 23.5729 3.24467 24.8365C4.42174 26.0408 5.931 26.8671 7.5798 27.2099C9.22859 27.5526 10.9421 27.3963 12.5017 26.7608C14.0612 26.1253 15.396 25.0395 16.3357 23.642C17.2754 22.2445 17.7773 20.5987 17.7774 18.9147V9.56349C19.641 10.8958 21.8755 11.6102 24.1663 11.6061V7.02425C23.7152 7.0248 23.2652 6.97815 22.8238 6.88504Z" fill="black"/>
</g>
<defs>
<clipPath id="clip0_23_10622">
<rect width="1440" height="1488" fill="white" transform="translate(-170 -355)"/>
</clipPath>
</defs>
</svg>
