<?xml version="1.0" encoding="UTF-8"?>
<svg width="24" height="24" viewBox="0 0 24 24" fill="none" xmlns="http://www.w3.org/2000/svg">
  <path d="M23.498 6.186C23.2494 5.40093 22.808 4.68464 22.2157 4.09223C21.6233 3.49981 20.907 3.05838 20.122 2.81C18.384 2.25 12 2.25 12 2.25C12 2.25 5.61601 2.25 3.87801 2.81C3.09308 3.05838 2.37675 3.49981 1.78438 4.09223C1.19201 4.68464 0.750619 5.40093 0.502008 6.186C0.0500081 7.938 0.0500081 12 0.0500081 12C0.0500081 12 0.0500081 16.062 0.502008 17.814C0.750619 18.5991 1.19201 19.3154 1.78438 19.9078C2.37675 20.5002 3.09308 20.9416 3.87801 21.19C5.61601 21.75 12 21.75 12 21.75C12 21.75 18.384 21.75 20.122 21.19C20.907 20.9416 21.6233 20.5002 22.2157 19.9078C22.808 19.3154 23.2494 18.5991 23.498 17.814C23.95 16.062 23.95 12 23.95 12C23.95 12 23.95 7.938 23.498 6.186ZM9.54601 15.564V8.436L15.873 12L9.54601 15.564Z" fill="black"/>
</svg>
