<svg width="65" height="64" viewBox="0 0 65 64" fill="none" xmlns="http://www.w3.org/2000/svg">
<g id="Icons/Trickline">
<path id="Vector" d="M6.6545 12.9785C6.74873 12.9061 6.83693 12.8263 6.91823 12.7396C5.85705 12.718 4.80388 12.5505 3.78832 12.2419C3.88038 12.0503 3.9575 11.8687 4.05205 11.6945C4.43022 11.0923 4.86562 10.5275 5.35078 10.0074C5.49975 9.84747 5.68896 9.73051 5.89862 9.66878C6.10829 9.60706 6.33069 9.60284 6.54254 9.65657C7.06999 9.68891 7.59745 9.73122 8.12491 9.75361H9.35647C10.0033 9.76108 10.6502 9.65657 11.2648 9.44506C12.0609 9.16885 12.8621 8.9026 13.6781 8.69856C14.5415 8.48705 15.4148 8.35766 16.2831 8.18347C16.7807 8.08145 17.2783 7.93713 17.7759 7.85004C18.4227 7.73557 19.0746 7.63853 19.7289 7.57383C20.0847 7.56139 20.4405 7.57134 20.7963 7.60369C21.5527 7.62857 22.3165 7.65594 23.0629 7.66839C23.3639 7.67336 23.6923 7.63106 23.971 7.62608C24.2496 7.62111 24.5308 7.6435 24.8119 7.6435H25.2946L27.4915 7.8152C27.7179 7.83262 27.9443 7.84755 28.1707 7.84755C28.9271 7.88238 29.676 8.02173 30.395 8.2631C30.4746 8.29545 30.5518 8.33775 30.6239 8.38254C31.2608 8.6264 31.9326 8.76574 32.6143 8.79311L32.6541 8.70851C32.4497 7.94745 32.4132 7.15103 32.5471 6.37445C32.6292 5.62298 32.8308 4.89141 33.1393 4.20214C33.4204 3.47306 33.9106 2.83853 34.5425 2.38068C34.7199 2.23621 34.9407 2.15558 35.1695 2.15175C35.224 2.15505 35.2785 2.14568 35.3287 2.12438C35.6167 2.01969 35.9244 1.98034 36.2295 2.00917C36.5346 2.03801 36.8294 2.1343 37.0927 2.2911C37.6003 2.51007 38.0556 2.83355 38.4263 3.24413C38.5084 3.34366 38.5855 3.44568 38.6527 3.55517C39.1453 4.37632 39.3742 5.33433 39.2996 6.29234C39.2772 7.15828 39.0856 8.00929 38.7348 8.80307C38.4114 9.45003 38.0158 10.0572 37.558 10.6171L37.4535 10.744C37.6077 10.8609 37.7495 10.9729 37.8963 11.0774C38.17 11.2665 38.4561 11.4108 38.7224 11.6398C38.9886 11.8687 39.2374 12.1374 39.4862 12.3863C40.0559 12.9636 40.5461 13.613 40.9466 14.3172C41.3124 14.8895 41.698 15.4818 42.0936 16.0018C42.4892 16.5219 42.7828 17.0992 43.1535 17.6317C43.7929 18.5524 44.4522 19.4631 45.0941 20.3863C45.3355 20.7321 45.5494 21.0954 45.7808 21.4463C46.4426 22.4566 47.1343 23.4519 47.7712 24.4821C48.1469 25.0842 48.433 25.7436 48.7664 26.3757C49.2367 27.264 49.7467 28.1324 50.1771 29.0382C50.7693 30.2002 51.4211 31.3324 52.1302 32.4298C52.3591 32.3352 52.5805 32.2606 52.7895 32.1586C53.2871 31.9247 53.7847 31.6609 54.2823 31.4121C54.4241 31.3374 54.5834 31.2926 54.7252 31.2155C55.2228 30.9443 55.7204 30.6556 56.218 30.3894C56.4469 30.2699 56.6832 30.1679 56.9296 30.0908C57.0421 30.0801 57.1556 30.0928 57.2629 30.1281C57.5864 30.6432 57.5366 31.31 57.1361 31.7704C56.4643 32.6936 55.7826 33.6018 55.1009 34.5075C54.979 34.6768 54.9168 34.8186 55.0536 35.0052C55.1034 35.1023 55.1407 35.2043 55.1656 35.3088C55.2037 35.4036 55.2203 35.5056 55.2143 35.6076C55.2082 35.7095 55.1797 35.8089 55.1307 35.8985C54.9513 36.316 54.679 36.6871 54.3346 36.9834C54.0509 37.2173 53.7947 37.4786 53.516 37.715C53.4349 37.7846 53.3408 37.8374 53.2392 37.8703C53.1375 37.9032 53.0303 37.9155 52.9239 37.9066C52.8841 37.817 52.8393 37.72 52.8044 37.6205C52.7803 37.5371 52.7319 37.4628 52.6655 37.407C52.599 37.3511 52.5175 37.3163 52.4312 37.3069C52.1676 37.2759 51.914 37.1874 51.6883 37.0477C51.4626 36.908 51.2703 36.7204 51.125 36.4982C51.0037 36.3336 50.8724 36.1766 50.7319 36.0279C50.5453 35.8139 50.4608 35.7965 50.2343 35.9433C50.2059 35.9594 50.1813 35.9815 50.1622 36.008C49.9432 36.3912 49.5775 36.3838 49.1968 36.3489C49.167 36.3086 49.1508 36.2598 49.1508 36.2096C49.1508 36.1594 49.167 36.1105 49.1968 36.0702C49.3337 35.8139 49.4556 35.5502 49.5651 35.2814C49.4459 35.2362 49.3226 35.2028 49.1968 35.1819C48.7341 35.157 48.2688 35.1346 47.8061 35.1346C47.6655 35.1272 47.5246 35.1347 47.3856 35.157C46.8482 35.2068 46.3058 35.162 45.7833 35.0301C45.6785 35.0018 45.5722 34.9793 45.4648 34.9629C44.8286 34.9129 44.2027 34.7721 43.6063 34.5449C43.0043 34.3404 42.413 34.1053 41.8348 33.8407C41.4847 33.6692 41.1515 33.4651 40.8396 33.231C39.8012 32.459 38.7857 31.6565 37.7943 30.8248C37.5418 30.5584 37.2644 30.3167 36.9658 30.1032C36.8497 30.0275 36.7094 29.9982 36.5727 30.0211C35.6298 30.1853 34.6818 30.3471 33.7364 30.5188C33.1343 30.6183 32.5098 30.7626 31.8903 30.8671C30.8528 31.0737 29.8004 31.2155 28.7455 31.2901C28.6873 31.2963 28.6298 31.308 28.5738 31.325C28.5315 31.6659 28.4494 32.0142 28.4494 32.3651C28.4245 33.2609 28.3474 34.1567 28.2205 35.045C28.1434 35.5452 28.1434 36.0628 28.0787 36.5604C27.9593 37.4512 27.8299 38.3147 27.7105 39.1931C27.6308 39.7828 27.5736 40.375 27.489 40.9623C27.4094 41.4948 27.3074 42.0248 27.2054 42.5548C27.1208 43.0002 27.0362 43.4481 26.9242 43.8861C26.8555 44.1347 26.7656 44.3769 26.6555 44.6102C26.5311 44.9436 26.3694 45.2621 26.1803 45.5632C25.8657 46.0865 25.3598 46.4667 24.7696 46.6232C23.9134 46.8106 23.0457 46.9411 22.1722 47.0139C21.6248 47.0662 21.0799 47.1657 20.5375 47.2627C19.8882 47.3772 19.2438 47.5166 18.5969 47.646C18.1317 47.7405 17.7012 47.8475 17.2011 47.9296C16.701 48.0117 16.1885 48.069 15.6909 48.1212C14.9371 48.2009 14.1757 48.2631 13.4293 48.3352C12.979 48.3775 12.5262 48.4248 12.0759 48.4721C11.9908 48.479 11.9071 48.4974 11.8271 48.5268C11.4072 48.6659 10.9733 48.7585 10.5333 48.803C10.384 48.8279 10.2347 48.8603 10.0855 48.8827C9.69219 48.9444 9.325 49.118 9.02766 49.3827C8.73033 49.6475 8.51541 49.9921 8.40854 50.3757C8.23438 50.841 8.09754 51.3212 7.96567 51.799C7.79151 52.4484 7.63477 53.1054 7.46807 53.7598C7.37906 54.1056 7.23363 54.4343 7.03765 54.7327C6.83115 55.0487 6.5923 55.0935 6.31613 54.8447C6.07786 54.6261 5.87179 54.3747 5.70408 54.0982C5.39432 53.5689 5.10386 53.0286 4.83328 52.4783C4.7752 52.3276 4.73998 52.1691 4.72878 52.008C4.6641 51.5725 4.58199 51.1346 4.54716 50.6967C4.48994 50.0074 4.47003 49.3156 4.42525 48.6239C4.39788 48.171 4.34812 47.7206 4.31329 47.2677C4.25133 46.7178 4.3426 46.1615 4.57702 45.6603C4.63716 45.5745 4.72503 45.5121 4.82582 45.4836C5.21146 45.3766 5.61949 45.3592 6.01259 45.4363C6.19422 45.4662 6.37087 45.506 6.54751 45.5582C7.44568 45.8071 8.3961 45.7872 9.28432 45.5035C9.98345 45.2746 10.6726 45.0257 11.3543 44.757C11.735 44.6077 12.0858 44.3813 12.459 44.2145C13.4393 43.7865 14.4494 43.4257 15.477 43.1346C16.0069 42.9704 16.5269 42.7912 17.0543 42.6369C17.8207 42.403 18.6143 42.2761 19.4155 42.2587C19.8782 42.2562 20.3385 42.2289 20.8063 42.2114C20.7441 41.8158 20.6694 41.4351 20.6296 41.0519C20.5948 40.7259 20.5948 40.39 20.5823 40.0565C20.555 39.422 20.5351 38.8049 20.5027 38.1778C20.4778 37.6727 20.4306 37.1576 20.4107 36.66C20.3908 36.1623 20.4107 35.6646 20.4107 35.167V34.4876C20.4331 33.6341 20.4729 32.7782 20.4729 31.9247C20.4753 31.5589 20.3957 31.1956 20.3684 30.8298C20.3153 30.3915 20.297 29.9497 20.3136 29.5085C20.3016 29.2751 20.2424 29.0465 20.1395 28.8366C20.0126 28.5231 19.8757 28.2245 19.7638 27.911C19.6421 27.6127 19.5521 27.3024 19.4951 26.9853C19.4643 26.6543 19.4643 26.321 19.4951 25.99C19.5224 25.5495 19.5747 25.1116 19.607 24.6712C19.6881 23.7652 19.9237 22.8798 20.3037 22.0534C20.5575 21.4463 20.8535 20.8566 21.1869 20.2867C21.6795 19.4755 22.2244 18.6942 22.7693 17.9178C23.1624 17.3555 23.6127 16.8255 24.0133 16.2656C24.4661 15.636 24.8891 14.9841 25.3294 14.3446C25.5434 14.0335 25.7723 13.7325 25.9888 13.4239C26.2848 13.0059 26.5759 12.5804 26.8894 12.13H26.0908C24.9441 12.1468 23.7986 12.0535 22.6698 11.8513C22.4359 11.8115 22.197 11.804 21.9657 11.7592C21.6066 11.6881 21.2491 11.6092 20.8933 11.5228C20.6296 11.4606 20.3584 11.3785 20.1096 11.3188C19.4949 11.1738 18.8508 11.2172 18.261 11.4432C17.5544 11.6876 16.8141 11.8211 16.0666 11.8388C15.355 11.8786 14.646 11.9384 13.9369 11.9856C13.4517 12.0205 12.9641 12.0379 12.4814 12.0827C11.9216 12.1325 11.3668 12.2345 10.8095 12.2544C10.1583 12.3489 9.52605 12.5454 8.936 12.8367C8.75625 12.9329 8.58259 13.0401 8.416 13.1577C7.80893 13.4662 7.20186 13.7673 6.58732 14.0609C6.45824 14.1179 6.3201 14.1516 6.17929 14.1604C6.14464 14.167 6.10883 14.163 6.07646 14.1491C6.04408 14.1351 6.01663 14.1118 5.99763 14.0821C5.97863 14.0523 5.96895 14.0176 5.96985 13.9824C5.97074 13.9471 5.98216 13.913 6.00264 13.8842C6.13632 13.5301 6.3612 13.2177 6.6545 12.9785ZM30.9324 23.8077V23.7953C30.7831 24.0018 30.6463 24.2183 30.5194 24.4373C31.0618 24.5268 31.5345 24.6363 32.0122 24.6861C33.0845 24.8105 34.1519 24.9872 35.2068 25.2186C35.9035 25.3604 36.6051 25.4873 37.3042 25.6217C38.18 25.7561 39.0309 26.0273 39.8245 26.4254C40.347 26.7066 40.8446 27.0401 41.3422 27.3536C42.4643 28.0578 43.5118 28.8939 44.7035 29.496C44.7408 29.5135 44.7782 29.5383 44.8155 29.5607C45.7758 30.1405 46.7312 30.7327 47.6991 31.3026C48.2539 31.6285 48.8311 31.9222 49.3984 32.2307L49.4456 32.1884C49.3605 32.0101 49.2658 31.8365 49.162 31.6684C48.448 30.6233 47.7314 29.5856 47.0074 28.5505C46.4799 27.804 45.96 27.0376 45.4002 26.311C44.9468 25.7461 44.5995 25.1036 44.3751 24.4149C44.3227 24.2633 44.2308 24.1284 44.1089 24.0242C43.6113 23.5912 43.0938 23.1856 42.5962 22.7527C42.1473 22.4147 41.7308 22.0357 41.3522 21.6205C41.0312 21.2149 40.6754 20.8391 40.3371 20.4485C39.9171 19.9821 39.5024 19.5109 39.0931 19.0351C38.8219 18.7166 38.5731 18.3782 38.3019 18.0597C38.1843 17.8834 38.008 17.7546 37.8043 17.6964C37.5779 17.8556 37.3465 18.0099 37.1201 18.1766C36.5304 18.6096 35.9358 19.0426 35.3536 19.488C34.4206 20.227 33.5374 21.0233 32.7089 21.8768C32.5571 22.0286 32.3755 22.153 32.2336 22.3147C31.7933 22.8124 31.3579 23.31 30.9324 23.8077ZM64.3264 54.0559C64.0824 53.4953 63.8949 52.9118 63.7666 52.3141C63.7666 52.1946 63.6696 52.1498 63.5601 52.1573C63.3659 52.162 63.1723 52.1795 62.9804 52.2096C61.9429 52.431 60.883 52.4833 59.8355 52.6301C59.4623 52.6799 59.0891 52.7047 58.711 52.7421L57.8103 52.8366L57.2331 52.8938C57.054 52.9113 56.8723 52.9212 56.6932 52.9436C56.3847 52.9834 56.0737 53.0208 55.7701 53.0805C55.392 53.1576 55.0237 53.292 54.6406 53.3418C53.5683 53.4811 52.4934 53.5906 51.4062 53.7125L48.7639 54.0161C48.3559 54.0609 47.9454 54.0932 47.5373 54.1455C46.669 54.2575 45.7957 54.3943 44.9349 54.4889C44.074 54.5834 43.1485 54.673 42.2578 54.775C41.3149 54.8845 40.3719 55.0239 39.4265 55.1259C38.481 55.2279 37.4908 55.3075 36.523 55.4071C35.901 55.4693 35.279 55.5564 34.657 55.6111C34.3012 55.6146 33.9464 55.6504 33.5971 55.7181C33.4896 55.7294 33.3811 55.7294 33.2736 55.7181C33.1343 55.7181 32.9925 55.7181 32.8532 55.733C31.9848 55.8376 31.1116 55.947 30.2482 56.0491C29.5292 56.1312 28.8126 56.2183 28.0911 56.283C27.2039 56.4098 26.31 56.4846 25.414 56.5069C25.2741 56.5086 25.1344 56.5203 24.996 56.5417C24.3541 56.6263 23.7147 56.7259 23.0703 56.7906C22.1796 56.8901 21.2864 56.9797 20.3932 57.0543C19.6349 57.0627 18.8814 57.1757 18.154 57.3903C18.1148 57.4 18.0738 57.4 18.0346 57.3903C18.0346 57.2907 17.9824 57.2882 17.9177 57.3181C17.7437 57.3794 17.5595 57.4064 17.3753 57.3977C16.7508 57.4276 16.1313 57.4948 15.5018 57.5545C14.8724 57.6142 14.1931 57.7013 13.5388 57.7635C12.6456 57.8456 11.7524 57.9178 10.8592 57.99C10.7521 58.0054 10.6431 57.9995 10.5383 57.9725C10.36 57.9241 10.1709 57.9337 9.99837 57.9999C9.88641 58.0323 9.76948 58.0547 9.65503 58.0845C9.29676 58.1766 8.92356 58.1119 8.56031 58.189C8.20757 58.2432 7.85205 58.2773 7.49544 58.291C7.172 58.3209 6.84607 58.3433 6.52263 58.3806C5.27863 58.5274 4.04956 58.6096 2.81302 58.719C2.21093 58.7688 1.60883 58.826 1.00922 58.8858C0.840037 58.9032 0.787789 59.0052 0.802717 59.1769C0.820133 59.4083 0.802717 59.6422 0.802717 59.8761C0.802717 60.0155 0.7853 60.1772 0.937069 60.2369C1.05898 60.2767 1.18587 60.2867 1.31276 60.2693C1.61381 60.2394 1.90988 60.1722 2.21093 60.1498C3.60918 60.0503 5.00993 59.9557 6.41067 59.8662C6.58483 59.8662 6.75651 59.8463 6.92818 59.8288C7.3586 59.784 7.78654 59.7243 8.21696 59.6895C8.78672 59.6472 9.35647 59.6223 9.92871 59.5875C10.7572 59.5377 11.5832 59.478 12.4167 59.4407C13.0213 59.4133 13.6284 59.4407 14.233 59.3934C14.8375 59.3461 15.4148 59.269 16.0044 59.1993C16.1661 59.1819 16.3254 59.152 16.4846 59.1296C16.9349 59.0699 17.3828 58.9928 17.8331 58.9554C18.5621 58.8932 19.2935 58.8609 20.0225 58.8086C20.7515 58.7564 21.5502 58.6892 22.314 58.6344C22.625 58.612 22.9385 58.612 23.2495 58.5772C23.8839 58.51 24.5134 58.4179 25.1453 58.3483C25.4464 58.3159 25.7499 58.3184 26.051 58.291C26.7974 58.2214 27.5438 58.1343 28.3076 58.0646C29.1883 57.985 30.0741 57.9253 30.9548 57.8407C31.8356 57.7561 32.7561 57.6466 33.6568 57.5595C34.0623 57.5197 34.4704 57.5022 34.8784 57.4749C35.1471 57.4575 35.4158 57.4475 35.6845 57.4226C36.4906 57.3405 37.2942 57.2484 38.1004 57.1738C38.7 57.1166 39.3045 57.0817 39.9066 57.0295C40.9392 56.9399 41.9717 56.8478 43.0042 56.7508C43.5292 56.701 44.0566 56.6512 44.5816 56.589C45.3753 56.492 46.1665 56.3725 46.9601 56.2854C47.6145 56.2108 48.2738 56.2257 48.9306 56.1337C49.881 55.9993 50.8414 55.9321 51.7968 55.8375C52.0655 55.8102 52.3367 55.7928 52.6029 55.7455C53.6678 55.5564 54.7351 55.4046 55.8149 55.3225C56.4718 55.2727 57.1286 55.203 57.7854 55.1358C58.0367 55.0811 58.2955 55.0537 58.5542 55.0537C58.9523 55.0886 59.3504 55.0637 59.7435 54.9841C60.7586 54.8323 61.7762 54.6979 62.7938 54.5585C63.3038 54.4889 63.8163 54.4267 64.3737 54.3545C64.3712 54.2201 64.3488 54.138 64.3264 54.0559Z" fill="#71717A"/>
</g>
</svg>
