<svg width="65" height="64" viewBox="0 0 65 64" fill="none" xmlns="http://www.w3.org/2000/svg">
<g id="Icons/Freestyle">
<path id="Vector" d="M61.4412 45.439C60.7824 45.9018 60.0813 46.2921 59.4014 46.7293C59.1522 46.885 58.8967 47.0343 58.6581 47.207C57.7565 47.8681 56.7577 48.3885 55.7019 48.7468C54.6436 49.066 53.5412 49.2101 52.4374 49.1733C51.2148 49.1733 49.99 49.1371 48.7674 49.0923C48.3386 49.12 47.9095 49.0417 47.5174 48.8641C47.6546 48.766 47.7623 48.6786 47.8785 48.6082L51.257 46.6227L57.8304 42.7241C59.7139 41.6108 61.5995 40.4997 63.4894 39.3907C63.5869 39.3536 63.6739 39.2928 63.7425 39.2136C63.8112 39.1344 63.8595 39.0394 63.8831 38.9369C63.9067 38.8344 63.9049 38.7276 63.8778 38.6259C63.8508 38.5243 63.7993 38.431 63.728 38.3542C63.4712 37.9641 63.0896 37.675 62.6469 37.5353C62.4843 37.7165 62.309 37.885 62.119 38.0364C61.5003 38.463 60.8689 38.8511 60.2397 39.2521C59.3613 39.813 58.4786 40.3632 57.6044 40.9305C57.0322 41.3016 56.4789 41.7068 55.9152 42.0736C55.0241 42.6431 54.1203 43.1912 53.2271 43.7542C51.8588 44.6201 50.4926 45.4838 49.1349 46.3603C47.3485 47.5184 45.5768 48.7063 43.7841 49.8494C42.1751 50.8838 40.5513 51.8968 38.9275 52.9034C38.0047 53.475 37.0608 54.0146 36.1275 54.569L35.4497 54.97C35.2892 54.4368 35.1815 53.9442 34.9915 53.4771C34.7844 52.9673 34.7679 52.3988 34.945 51.8776C35.2765 50.7409 35.5912 49.5956 35.8889 48.4397C36.1275 47.6741 36.1634 46.8615 35.9966 46.0767C35.7318 44.9822 35.6958 43.844 35.891 42.7348C35.907 42.4962 35.907 42.2568 35.891 42.0182C35.9755 41.9862 36.1022 41.9286 36.231 41.8881C36.7377 41.7431 37.2192 41.5149 37.6521 41.212C37.9392 40.9987 38.1968 40.745 38.4967 40.553C38.824 40.3397 39.0668 40.0156 39.1745 39.6381C39.3709 39.0089 39.4216 38.3414 39.3181 37.6909C39.2686 37.2607 39.1187 36.8485 38.8809 36.4882C38.643 36.1278 38.3239 35.8296 37.9498 35.618C37.4762 35.3316 36.9475 35.1507 36.399 35.0874C35.8506 35.0242 35.2951 35.08 34.7698 35.2511C34.4298 35.3556 34.0983 35.4836 33.7667 35.5988C33.622 35.32 33.4634 35.0488 33.2916 34.7862C32.63 33.9344 32.0754 33.0032 31.6404 32.0137C31.5601 31.8111 31.4525 31.6192 31.3553 31.4251C31.085 30.8834 30.7789 30.3588 30.5508 29.7957C30.2552 29.0727 30.0145 28.3284 29.7695 27.5884C29.702 27.4165 29.6917 27.2272 29.74 27.0488C30.1464 25.933 30.3849 24.7619 30.4473 23.5747C30.4579 23.1844 30.5402 22.8005 30.6881 22.4401C31.0534 21.6851 31.5327 20.9813 31.9022 20.2306C32.409 19.2261 32.8672 18.2003 33.3444 17.1809C33.4986 16.8524 33.6464 16.5219 33.8048 16.1764C34.4517 16.7711 35.2299 17.201 36.0747 17.4304C36.8201 17.5776 37.5697 17.7034 38.3235 17.7866C38.6869 17.7794 39.046 17.8672 39.366 18.0413C39.686 18.2154 39.956 18.47 40.1501 18.7804C40.3612 19.0896 40.6231 19.3605 40.9208 19.5844C41.114 19.7524 41.3576 19.8498 41.6123 19.861C41.867 19.8722 42.118 19.7966 42.325 19.6463C42.5763 19.4692 42.7917 19.2325 43.0577 19.079C43.5645 18.7804 44.1008 18.5394 44.6562 18.356C45.8224 17.9598 46.876 17.2835 47.7264 16.3854C47.7721 16.3434 47.8119 16.2953 47.8447 16.2425C47.9191 16.1036 47.9627 15.95 47.9726 15.7924C47.9824 15.6348 47.9582 15.4769 47.9017 15.3297C47.7919 15.0375 47.4794 15.1484 47.2408 15.1292C47.1629 15.1272 47.085 15.1337 47.0085 15.1484C45.5642 15.3318 44.1177 15.5046 42.6776 15.7093C42.2792 15.7743 41.8707 15.7086 41.512 15.5216C40.8258 15.1612 40.1353 14.8115 39.4659 14.4233C38.2433 13.7153 37.0503 12.9581 35.8192 12.265C34.8242 11.6258 33.7142 11.1909 32.5526 10.9854C32.2971 10.9534 32.0458 10.8788 31.7882 10.8233C31.7523 10.8916 31.7312 11.0089 31.6678 11.0366C31.0006 11.3906 30.7767 12.1029 30.4009 12.6788C29.9152 13.4124 29.5985 14.2591 29.0938 14.9927C28.8214 15.3915 28.5744 15.8074 28.321 16.2169C27.7867 17.07 27.2652 17.9529 26.7183 18.7996C26.2432 19.529 25.7153 20.2221 25.2254 20.9323C25.1325 21.0688 25.0522 21.1455 24.8918 21.1114C24.7313 21.0773 24.6173 21.0688 24.4821 21.0368L20.43 20.0152C20.0246 19.9128 19.617 19.8211 19.2137 19.7166C18.8104 19.6121 18.4366 19.5034 18.0523 19.401C17.8001 19.3251 17.5513 19.2375 17.3069 19.1387C16.4285 18.7889 15.5459 18.4477 14.678 18.0723C14.2367 17.8825 14.1522 17.6351 14.2452 17.1574C14.2984 16.9295 14.3267 16.6963 14.3296 16.4622C14.3112 15.46 14.1794 14.4633 13.9369 13.4913C13.748 12.717 13.5453 11.9463 13.3287 11.1795C13.2316 10.7529 13.0965 10.3371 12.9191 9.93826C12.4439 8.95208 12.2162 7.86298 12.256 6.76695C12.2443 6.3919 12.1883 6.0196 12.0892 5.65795C11.9203 4.90724 11.6395 4.68118 10.8603 4.64066C9.53042 4.57923 8.2095 4.38854 6.91585 4.07123C6.5071 3.94852 6.07699 3.91606 5.65472 3.97604C5.23246 4.03602 4.8279 4.18704 4.46852 4.41886C4.20246 4.59587 4.16023 4.74729 4.39673 4.97122C4.8486 5.39776 5.31315 5.80937 5.78192 6.21672C5.93607 6.37027 6.11556 6.49397 6.31193 6.58354C7.09322 6.98875 7.84494 7.45794 8.55655 7.98045C8.64973 8.03583 8.72803 8.11345 8.7846 8.20651C9.28853 8.90448 9.58186 9.73475 9.62923 10.5973C9.62923 10.9556 9.64612 11.3138 9.65668 11.6636C9.69891 13.1799 9.73692 14.6963 9.7876 16.2105C9.81294 16.9463 9.8425 17.6821 9.91218 18.4136C9.96497 19.0534 10.06 19.6868 10.193 20.3138C10.3324 21.2266 10.8518 22.037 11.6183 22.5382C12.3933 22.9647 13.202 23.3273 14.034 23.6237C14.8596 23.9351 15.7233 24.1526 16.5679 24.4299C16.9501 24.5557 17.3112 24.7498 17.6934 24.8713C18.595 25.1614 19.4608 25.5581 20.2695 26.055C20.525 26.2085 20.7359 26.4273 20.8809 26.6894C21.0258 26.9515 21.0997 27.2477 21.0951 27.5479C21.0635 28.1557 20.9917 28.7635 20.884 29.3607C20.789 30.2137 20.6728 31.0668 20.6433 31.9199C20.6158 32.6215 20.6939 33.3275 20.7362 34.0291C20.7587 34.4188 20.7918 34.8078 20.8354 35.1957C20.8819 35.6222 20.9473 36.0488 20.9917 36.4945C21.1395 37.9085 21.2704 39.3267 21.4309 40.7407C21.5259 41.5788 21.6568 42.4127 21.7856 43.2466C21.8659 43.8843 21.9757 44.5156 22.1214 45.1404C22.5014 46.6397 22.9829 48.1113 23.5594 49.5444C23.8529 50.3762 24.2224 51.1759 24.6679 51.9352C24.5349 52.4939 24.4167 53.0442 24.2752 53.5859C24.1527 54.1404 24.1527 54.7119 24.2752 55.2643C17.9827 51.5577 12.0618 47.3158 5.88962 43.2807V44.2106C5.82324 43.9824 5.7989 43.7438 5.81782 43.5068C5.82869 43.4225 5.8144 43.3369 5.77678 43.2609C5.73915 43.1849 5.67992 43.122 5.60666 43.0802C5.24347 42.8435 4.89084 42.5876 4.53398 42.3402C3.78014 41.8156 3.03053 41.2867 2.27458 40.7663C2.02114 40.5875 1.76123 40.4181 1.49541 40.2587C1.22935 40.1009 0.897831 39.9324 0.600098 39.7703V41.1822C0.734636 41.2813 0.855373 41.3982 0.959067 41.5298C1.12799 41.8284 1.28214 42.1333 1.41728 42.4468C1.55876 42.7603 1.66645 43.0867 1.81637 43.398C2.19434 44.1679 2.59977 44.9229 2.96929 45.6949C3.60405 47.0389 4.50028 48.24 5.60455 49.2267C6.42173 49.9518 7.33394 50.5447 8.19547 51.2079C9.23014 52.0034 10.3978 52.6134 11.6395 53.0058C12.2856 53.2297 12.9634 53.3385 13.6455 53.3278C14.4458 53.3044 15.2482 53.3534 16.0484 53.3555C16.5869 53.3555 17.1275 53.3556 17.6638 53.315C17.9869 53.2916 18.2973 53.1764 18.6225 53.1465C19.0368 53.0679 19.4653 53.1372 19.8345 53.3428C20.2801 53.6285 20.7509 53.8717 21.1923 54.1617C21.944 54.6544 22.6852 55.1662 23.4263 55.6759C23.9479 56.0363 24.4441 56.4394 24.9868 56.7636C25.1466 56.8282 25.2876 56.9328 25.3965 57.0674C25.5055 57.2021 25.5788 57.3624 25.6097 57.5335C25.6646 57.9024 25.9138 58.0325 26.2812 58.0453C26.6886 58.0518 27.0828 57.899 27.3813 57.6188C27.5122 57.51 27.6389 57.3479 27.7867 57.3202C28.1901 57.2456 28.606 57.2285 29.041 57.188C29.041 57.6721 29.0136 58.1093 29.041 58.5423C29.0706 58.8984 29.1424 59.2482 29.2522 59.5873C29.2871 59.6628 29.337 59.7303 29.3987 59.7857C29.4605 59.8411 29.5328 59.8832 29.6112 59.9093C29.9547 59.9886 30.3151 59.9412 30.6271 59.7758C30.9392 59.6104 31.1825 59.3378 31.3131 59.0072C31.5601 58.4463 31.634 57.8235 31.5242 57.22C31.519 57.1429 31.524 57.0654 31.539 56.9897C31.8621 56.9854 32.1852 57.0174 32.5019 57.0835C32.8398 57.1944 33.2051 57.1837 33.5366 57.0536C33.6802 56.9939 33.8259 56.9449 33.9758 56.9043C34.3267 56.8335 34.6454 56.6493 34.8838 56.3797C35.0316 56.224 35.2005 56.0918 35.3842 55.983C35.7791 55.7378 36.1866 55.5096 36.5899 55.2771C37.6732 54.6437 38.7585 54.0124 39.8418 53.3833C41.132 52.6326 42.4242 51.8904 43.7081 51.1354C44.5527 50.6321 45.3974 50.1053 46.2568 49.5935C46.3324 49.5401 46.4195 49.5056 46.511 49.493C46.6024 49.4804 46.6955 49.49 46.7826 49.521C47.9966 49.9092 49.2614 50.1112 50.5348 50.1203C51.5125 50.1459 52.4902 50.1203 53.4678 50.1011C54.8427 50.1723 56.2035 49.7922 57.3468 49.0177C58.4283 48.4728 59.4775 47.8647 60.4888 47.1963C61.3229 46.629 62.2013 46.13 63.0776 45.6203C63.3458 45.4646 63.6224 45.326 63.8948 45.181C64.1355 44.6904 64.3805 44.2063 64.6001 43.703C64.5325 43.735 64.4713 43.7798 64.4016 43.8075C63.3582 44.2393 62.3653 44.7865 61.4412 45.439ZM17.176 52.4534C16.4901 52.461 15.805 52.4032 15.1299 52.2807C14.5175 52.1911 13.9031 52.1186 13.2928 52.0226C12.6325 51.9455 11.9774 51.828 11.3312 51.6707C10.6744 51.4844 10.0378 51.2322 9.43074 50.9179C8.2856 50.3575 7.24312 49.6046 6.34783 48.6914C5.81993 48.1283 5.2308 47.625 4.68601 47.0662C4.05254 46.3582 3.50986 45.5734 3.06432 44.7331C2.6923 44.0831 2.39071 43.3945 2.16478 42.6793C2.09088 42.466 1.98107 42.2528 1.85649 41.9691C2.15211 42.0438 2.43295 42.1675 2.68845 42.3359C3.27759 42.7113 3.87728 43.0675 4.45374 43.4599C4.94996 43.799 5.4124 44.1914 5.9044 44.5369C6.30982 44.8205 6.73636 45.0722 7.15657 45.3345C7.31282 45.4347 7.47753 45.5201 7.63378 45.6224C8.42774 46.1321 9.21958 46.644 10.0114 47.1601C10.9849 47.7999 11.9541 48.4397 12.9317 49.0667C13.7025 49.5636 14.4838 50.0414 15.2545 50.5276L17.8137 52.1421L17.951 52.2338C17.7211 52.3855 17.4505 52.4622 17.176 52.4534ZM31.8473 39.2222H31.8727V39.5293H31.8473V39.2222ZM26.8281 40.0753C26.7119 40.6882 26.6273 41.3068 26.5747 41.9286C26.4691 42.7987 26.2474 43.6497 25.9138 44.458C25.3373 45.8608 25.0044 47.3535 24.9298 48.8705C24.915 49.4399 24.8622 50.0094 24.8221 50.6833C24.4212 50.1242 24.1092 49.5054 23.8972 48.8492C23.4643 47.5482 23.0272 46.2452 22.6957 44.9144C22.474 43.8907 22.3051 42.8606 22.191 41.8198C22.0605 40.8761 21.95 39.9297 21.8595 38.9812C21.7174 37.5512 21.5942 36.1193 21.49 34.686C21.4731 34.1528 21.4837 33.6196 21.5217 33.0907C21.5491 32.372 21.5787 31.6554 21.6188 30.9367C21.642 30.3822 21.7033 29.832 21.8025 29.2882C21.9545 29.6379 22.0981 29.9919 22.2586 30.3374C22.7422 31.3675 23.2278 32.3955 23.7177 33.4192C24.3512 34.7692 24.9952 36.1256 25.6625 37.4713C25.9433 38.0258 26.2622 38.5611 26.6169 39.0729C26.7235 39.215 26.7974 39.3792 26.8332 39.5537C26.869 39.7282 26.8658 39.9086 26.8239 40.0817L26.8281 40.0753ZM28.6208 56.3925C28.8003 56.1238 28.8003 56.1238 29.2015 56.3413L28.6208 56.3925ZM30.7746 58.9837C30.6963 59.1278 30.5775 59.2452 30.4332 59.3211C30.2889 59.397 30.1255 59.428 29.9638 59.4103C29.8307 58.6467 29.7924 57.8694 29.8498 57.0963L30.952 56.9897C31.1632 57.6529 31.0956 58.3759 30.7704 58.9901L30.7746 58.9837ZM30.0525 56.2987C30.0618 56.1586 30.1164 56.0255 30.208 55.9199C30.2996 55.8143 30.423 55.7421 30.5593 55.7143L30.8422 56.2006L30.0525 56.2987ZM32.6138 43.2509C32.5906 43.4066 32.5505 43.558 32.5399 43.7137C32.4132 44.5156 32.2063 45.3004 31.9191 46.0596C31.7164 46.998 31.6932 47.9684 31.8473 48.9153C31.936 49.8323 32.0395 50.7494 32.1366 51.6686C32.2316 52.6816 32.2063 53.701 32.0585 54.7077C32.0141 55.0318 31.974 55.3603 31.9276 55.6844C31.8558 56.1771 31.8537 56.1771 31.3764 56.143C31.2138 55.8593 31.0871 55.6098 30.9372 55.3795C30.8916 55.2869 30.8141 55.2142 30.7193 55.1749C30.6246 55.1357 30.5189 55.1326 30.422 55.1662C30.3641 55.185 30.3027 55.1901 30.2425 55.1811C29.7906 55.0937 29.7906 55.0916 29.5837 55.4818L29.4655 55.725C29.3016 55.738 29.1383 55.695 29.0016 55.603C28.8648 55.5109 28.7627 55.3751 28.7116 55.2174C28.5364 54.8111 28.2203 54.4834 27.8226 54.2961C27.6981 54.2321 27.5904 54.134 27.4637 54.0828C27.3178 54.0275 27.1957 53.9223 27.1186 53.7856C27.0415 53.6488 27.0141 53.4892 27.0414 53.3342C27.0625 52.4577 27.1997 51.5854 27.451 50.7473C27.5777 50.3634 27.7551 49.9966 27.981 49.6596C28.6661 48.6277 29.0663 47.4299 29.1403 46.1897C29.1464 45.7526 29.1082 45.3159 29.0262 44.8866C28.9985 44.7522 28.9982 44.6134 29.0254 44.4788C29.0527 44.3442 29.1068 44.2166 29.1846 44.1039C29.6217 43.4236 30.0018 42.7028 30.3903 41.9904C30.7493 41.3336 31.0914 40.6682 31.4461 39.9985L31.8473 39.8578C31.993 40.4144 32.1345 40.9732 32.2844 41.5277C32.3154 41.6791 32.3734 41.8236 32.4555 41.9542C32.5726 42.1473 32.647 42.3638 32.6736 42.5887C32.7002 42.8136 32.6784 43.0417 32.6096 43.2573L32.6138 43.2509Z" fill="#05807D"/>
</g>
</svg>
