<svg width="65" height="64" viewBox="0 0 65 64" fill="none" xmlns="http://www.w3.org/2000/svg">
<g id="Icons/Rigging">
<path id="Vector" d="M51.5117 49.1289C51.2383 49.1877 50.9745 49.2834 50.706 49.3741L45.1649 51.1352C44.4922 50.2007 43.0065 50.8017 42.208 49.5213C43.0307 47.0048 43.8074 44.4244 44.7221 41.8981C45.7108 39.1725 46.7694 36.4735 47.8967 33.8039C49.4631 30.1861 49.9143 26.1728 49.1912 22.2905C49.0533 21.535 48.8452 20.7919 48.6952 20.0389C48.2837 17.2063 47.3905 14.4676 46.0553 11.9447C44.8108 9.64357 43.2343 7.54373 41.378 5.71459C39.0565 3.70668 36.187 2.46275 33.1511 2.14825C30.6498 1.84741 28.1155 2.00527 25.6694 2.61428C24.4837 2.9454 23.315 3.34766 22.1729 3.81369C18.4573 5.07875 15.1817 7.40587 12.7409 10.5147C12.5425 10.76 12.3417 11.0052 12.1457 11.2652C11.1145 12.3397 10.3217 13.625 9.82036 15.0352C9.31222 16.9851 8.91055 18.9621 8.61051 20.9562C8.08543 25.3957 8.64922 29.9015 10.2535 34.0688C11.3883 37.3015 12.6732 40.4828 13.8346 43.7058C14.4202 45.2829 14.7614 46.9434 14.8509 48.626C13.4233 49.3423 12.6611 50.9537 13.0023 52.5309V53.1392C13.0507 55.3295 13.5975 57.4806 14.6065 59.4158C15.1114 60.4445 15.9734 61.2477 17.027 61.6715C18.0805 62.0952 19.2513 62.1095 20.3146 61.7116C20.9005 61.5845 21.4154 61.2331 21.7519 60.7305C22.2358 59.9604 22.7319 59.1951 23.2642 58.3611C26.6348 58.4789 30.095 58.6064 33.5576 58.7217C34.5255 58.7536 35.5175 58.6751 35.7353 59.9947C35.7353 60.029 35.791 60.0536 35.8127 60.0879C36.7855 61.5424 38.5712 62.1973 40.2384 61.7116C40.9447 61.7147 41.631 61.4732 42.1836 61.0272C42.7362 60.5812 43.1221 59.9574 43.2775 59.2589C43.2775 59.2 43.3936 59.1632 43.4541 59.1141C44.0639 59.0823 44.664 58.967 45.2423 58.7683C45.4143 58.6906 45.6008 58.6513 45.7891 58.653C47.662 59.0406 49.5421 59.4036 51.3956 59.8794C52.5522 60.1713 52.9514 60.0487 53.4426 58.9204C54.096 57.3506 54.4057 55.6582 54.3597 53.9559C54.4518 52.6576 54.2135 51.3569 53.6677 50.1787C53.5064 49.7593 53.1942 49.4177 52.7939 49.2228C52.3937 49.0279 51.9354 48.9943 51.5117 49.1289ZM23.2521 56.551H23.0271V51.6209H23.2521V56.551ZM34.7505 56.7595H34.6295V52.5309H34.7505V56.7595ZM41.6345 30.3381C41.2825 31.8359 40.7116 33.2719 39.9407 34.5986C38.3099 37.6652 37.244 41.0073 36.7951 44.4612C36.6185 45.7833 36.4128 47.1004 36.241 48.42C36.2142 48.8381 36.1064 49.2467 35.9237 49.6226C35.741 49.9984 35.4871 50.3341 35.1764 50.6103C32.5147 50.5736 29.9619 50.5662 27.414 50.4877C26.1037 50.447 24.7966 50.3324 23.4989 50.1443C22.9836 50.0209 22.5169 49.7428 22.1599 49.3463C21.803 48.9499 21.5722 48.4535 21.4978 47.9221C21.0453 44.7678 20.6921 41.5964 20.0944 38.4715C19.708 36.74 19.1553 35.051 18.4442 33.4286C17.8005 31.8245 16.973 30.2964 16.2156 28.7389C15.588 27.335 15.2791 25.8063 15.3118 24.2653C15.3445 22.7244 15.7178 21.2105 16.4043 19.8353C17.105 18.2058 18.0101 16.6749 19.0975 15.2804C19.3878 14.8463 19.7435 14.4612 20.1525 14.1399C21.6484 13.065 23.1818 12.0448 24.7499 11.0813C25.4 10.6963 26.1233 10.4556 26.872 10.3749C28.5343 10.1713 30.2111 10.0879 31.8831 10.1296C33.2156 10.2556 34.5071 10.6637 35.6741 11.3274C36.8412 11.9912 37.8578 12.8959 38.6583 13.9829C39.7109 15.2093 40.4948 16.6467 40.9546 18.2017C41.3175 19.3987 41.7652 20.5687 42.1644 21.7533C42.6968 23.4212 42.7694 25.1995 42.3725 26.9042C42.1548 28.0546 41.862 29.1877 41.6345 30.3381ZM43.9792 57.4266C43.9671 57.5542 43.8292 57.6719 43.5775 58.0472C43.379 55.9366 43.3378 53.8138 43.4541 51.6969C43.7482 51.816 43.9958 52.0293 44.1592 52.3043C44.3226 52.5793 44.3928 52.9009 44.3591 53.2201C44.3034 54.6256 44.1268 56.0261 43.9792 57.4266ZM49.9365 55.7636C49.1525 55.8618 48.4605 55.0548 48.2597 53.7524C48.5965 53.3681 49.0616 53.1238 49.5655 53.0663C50.0693 53.0087 50.5764 53.1422 50.9891 53.4409C51.1609 54.8095 50.7737 55.6606 49.9365 55.7636Z" fill="#71717A"/>
</g>
</svg>
