<svg width="64" height="64" viewBox="0 0 64 64" fill="none" xmlns="http://www.w3.org/2000/svg">
<g id="Icons/Highline Speed">
<path id="Vector" d="M10.8894 62.9026C11.12 63.0481 11.3617 63.1735 11.6124 63.2809C12.5615 63.7041 13.5889 63.9212 14.6275 63.9235C14.7283 63.9279 14.829 63.9391 14.9275 63.9615C15.6438 64.0511 16.3712 63.9839 17.0606 63.7645C17.5083 63.6302 17.9359 63.2988 18.4619 63.4533C18.5341 63.4604 18.6066 63.443 18.6678 63.4041C18.9185 63.2944 19.1602 63.1645 19.3908 63.0145C19.5529 62.8958 19.6792 62.7347 19.7557 62.5489C19.8576 62.2794 20.0218 62.0378 20.2347 61.8437C20.5727 61.5325 20.9062 61.2123 21.2464 60.9011C21.3257 60.8386 21.4103 60.7831 21.4994 60.7355L21.7232 61.0914C22.1194 61.8078 22.7528 62.3608 23.5139 62.6586C24.4371 63.0291 25.3914 63.3168 26.3656 63.5182C27.3863 63.6951 28.4182 63.7914 29.4546 63.807C30.285 63.8317 31.1222 63.722 31.9548 63.6682C32.2011 63.657 32.445 63.6324 32.6868 63.5944C34.3405 63.2466 35.9139 62.5904 37.3247 61.6601C37.9917 61.2996 38.5424 60.7556 38.9117 60.093C38.9901 59.9586 39.0818 59.831 39.1848 59.7146C39.3079 59.8042 39.3572 59.8355 39.4086 59.8713C40.0175 60.3818 40.7091 60.7803 41.4545 61.0511C42.1753 61.2974 42.8983 61.5459 43.6078 61.8235C44.2794 62.081 44.9755 62.278 45.6851 62.4123C46.558 62.5869 47.4332 62.7571 48.3107 62.9048C48.7315 62.9809 49.159 63.0257 49.5866 63.0324C50.173 63.0324 50.7595 62.9877 51.3482 62.9541C51.5989 62.9384 51.8451 62.8869 52.0958 62.8578C52.6128 62.5265 53.121 62.1862 53.6224 61.8302C53.0851 61.9713 52.539 62.072 51.9883 62.1325C51.0191 62.2892 50.0387 62.3653 49.0561 62.3563C47.8454 62.3173 46.6435 62.137 45.4746 61.819C44.9777 61.669 44.4763 61.5369 43.9794 61.3914C43.026 61.1193 42.105 60.7439 41.2329 60.2721C40.7427 60.0056 40.2436 59.7549 39.7489 59.4997L39.7668 59.3833C39.966 59.3631 40.163 59.334 40.3622 59.3206C41.7052 59.2333 43.0482 59.1549 44.3756 59.0631C44.5103 59.038 44.6488 59.0417 44.7819 59.0741C44.9151 59.1066 45.0398 59.1669 45.1478 59.2512C45.3471 59.4303 45.5955 59.3452 45.8082 59.39C46.3946 59.4795 46.9923 59.4616 47.572 59.3407C48.3293 59.2208 49.0538 58.9465 49.7007 58.5348C50.0521 58.3355 50.4438 58.2214 50.8468 58.199C51.9659 58.0893 53.0851 58.0087 54.2043 57.9169L55.3235 57.8363C56.4584 57.749 57.591 57.6684 58.7236 57.5721C59.0392 57.2565 59.3213 56.9005 59.619 56.5804L57.5037 56.8042C56.671 56.8893 55.8383 56.9565 55.0057 57.0281C53.985 57.1266 52.9665 57.2318 51.9458 57.3303C51.8773 57.3356 51.8084 57.3356 51.7399 57.3303C51.8126 57.1141 51.8467 56.8868 51.8406 56.6587C51.7484 56.4083 51.5727 56.1972 51.3432 56.0611C51.1137 55.9249 50.8444 55.8719 50.5804 55.911C50.0487 55.9408 49.5157 55.9371 48.9844 55.8998C48.6992 55.8691 48.4159 55.822 48.1361 55.7587C47.9641 55.7431 47.7935 55.7147 47.6257 55.6737C47.29 55.564 46.9744 55.4207 46.9721 54.9841C46.9721 54.711 46.9251 54.4356 46.9475 54.1647C47.0101 53.4047 47.0847 52.6456 47.1713 51.8879C47.2407 51.2723 47.337 50.6611 47.4131 50.0454C47.5138 49.2305 47.6369 48.4156 47.6906 47.5962C47.7354 46.938 47.6906 46.2731 47.6906 45.6105V42.8367C47.7052 42.4585 47.6053 42.0848 47.4041 41.7643C47.1923 41.4519 46.9683 41.1479 46.7326 40.8531C45.9201 39.9128 44.9643 39.1069 43.9033 38.4621C43.1333 37.936 42.3096 37.486 41.4903 37.0361C40.8234 36.6604 40.1359 36.3225 39.431 36.0241C38.8045 35.7752 38.2046 35.4639 37.6403 35.0951C37.2018 34.7927 36.7244 34.551 36.2212 34.3764C35.9757 34.3077 35.7576 34.1644 35.5972 33.9662C35.4368 33.7681 35.3419 33.5249 35.3258 33.2705C35.2662 32.566 35.2334 31.8596 35.2273 31.1526C35.2273 30.1429 35.2676 29.1377 35.2743 28.1213C35.2878 26.5072 35.2542 24.8886 35.3057 23.2744C35.3057 22.4349 35.4333 21.5999 35.6773 20.7961C36.0354 19.6723 36.5167 18.591 37.1143 17.5723C37.5329 16.8828 37.994 16.2179 38.4305 15.5396C38.6543 15.1769 38.9095 14.8187 39.102 14.4359C39.6795 13.1956 40.1876 11.9262 40.6241 10.63C40.8994 9.79268 41.3023 9.00464 41.8194 8.29048C42.4014 7.55841 42.9789 6.82186 43.5675 6.09426C43.7076 5.90147 43.8914 5.74472 44.1039 5.6369C44.3164 5.52909 44.5514 5.4733 44.7897 5.47413C44.8686 5.48105 44.9473 5.45928 45.0115 5.41281C45.0756 5.36634 45.1209 5.29829 45.1389 5.22115C45.19 5.11751 45.2198 5.00461 45.2263 4.88921C45.2329 4.77381 45.2161 4.65828 45.1769 4.54952C45.1305 4.44252 45.1142 4.32483 45.1299 4.20923C45.1771 3.89631 45.1213 3.57652 44.971 3.29806C44.9074 3.18443 44.8628 3.06117 44.8389 2.93315C44.7942 2.48539 44.4338 2.24585 44.2212 1.91004C44.1808 1.87295 44.1319 1.84641 44.0788 1.83274C44.0257 1.81907 43.97 1.81871 43.9167 1.83168C43.6645 1.88794 43.4262 1.99455 43.2161 2.1451C42.7102 2.59285 42.2335 3.06971 41.7858 3.57567C41.459 3.94058 41.1814 4.3458 40.9554 4.78012C40.6286 5.43607 40.3779 6.12337 40.1025 6.81066C39.938 7.28935 39.66 7.72104 39.2922 8.06884C38.8498 8.48117 38.4725 8.95822 38.1731 9.48373C37.9985 9.76582 37.8462 10.0613 37.6582 10.3322C36.9196 11.4516 36.3488 12.674 35.9615 13.959C35.7355 14.7649 35.346 15.5194 34.82 16.1709C34.4909 16.5515 34.1596 16.9298 33.8194 17.3015C33.7006 17.4197 33.5758 17.5318 33.4456 17.6373L33.1971 15.9895C33.1626 15.8054 33.1402 15.6192 33.13 15.4321C33.1212 14.9537 32.991 14.4853 32.7517 14.0709C32.5819 13.6511 32.2685 13.3052 31.8675 13.0948C31.6077 12.9345 31.3072 12.8524 31.0019 12.8583C30.6967 12.8643 30.3996 12.958 30.1462 13.1284C29.9224 13.0881 29.8776 13.3098 29.7567 13.4083C29.1031 13.9232 28.6465 14.6441 28.4585 15.4545C28.2843 16.1132 28.2777 16.8051 28.4392 17.4671C28.6006 18.1291 28.9251 18.7401 29.3829 19.2447C29.5375 19.3914 29.6292 19.5923 29.6388 19.8052C29.6484 20.0181 29.5752 20.2264 29.4344 20.3865C29.271 20.27 29.1166 20.1424 28.9442 20.0394C28.5566 19.8088 28.2453 19.4694 28.0489 19.0634C27.6818 18.3425 27.2968 17.6328 26.9297 16.9074C26.6859 16.4327 26.4692 15.9447 26.2805 15.4455C26.0997 15.003 25.9909 14.5344 25.9582 14.0575C25.9406 13.5964 25.886 13.1375 25.7948 12.6851C25.6359 11.8658 25.4232 11.0553 25.2688 10.2225C25.1397 9.4539 24.9412 8.69858 24.6756 7.96586C24.5393 7.67782 24.4792 7.35959 24.5012 7.04167C24.5231 6.72374 24.6263 6.41679 24.801 6.15023C24.9308 5.9577 25.0427 5.75621 25.139 5.54577C25.3091 5.23234 25.4434 4.89653 25.5396 4.554C25.5619 4.38705 25.6345 4.23086 25.7478 4.10625C25.9246 3.93834 26.1216 3.79059 26.3029 3.62716C26.4287 3.53159 26.5409 3.41937 26.6364 3.29358C26.8289 2.99807 26.726 2.78091 26.3813 2.68464C26.2797 2.64683 26.1703 2.63521 26.0631 2.65086C25.9559 2.66651 25.8544 2.70893 25.7679 2.77419C25.6202 2.88837 25.4613 2.99807 25.3046 3.08762C25.0677 3.26561 24.7963 3.39219 24.5077 3.45925C24.3825 2.87782 24.3351 2.28232 24.3667 1.6884C24.3936 1.43318 24.3936 1.17349 24.3667 0.918269C24.3242 0.510816 24.1832 0.412311 23.7109 0.436937C23.4467 1.17349 23.6885 1.98168 23.4691 2.73166C23.2833 1.94138 23.1222 1.16453 22.9633 0.367536C22.9028 0.0742595 22.8245 -0.00633563 22.5827 0.000380623C22.3052 0.000380623 22.2022 0.0944082 22.1597 0.387685C22.1315 0.558536 22.1232 0.73208 22.1351 0.904836C22.1888 1.47124 22.2582 2.03764 22.3231 2.60405C22.1187 2.20597 21.9342 1.79802 21.7702 1.38169C21.5464 0.846629 21.3024 0.761556 20.8099 1.08841C20.7943 1.19905 20.7943 1.31135 20.8099 1.42199C20.9487 1.88989 21.1054 2.35331 21.2576 2.81673C21.4197 3.17604 21.5007 3.56661 21.4949 3.96073C21.3818 3.94725 21.2729 3.90996 21.1753 3.8513C21.0776 3.79265 20.9936 3.71396 20.9286 3.62044C20.737 3.29519 20.4503 3.03654 20.1071 2.87942C19.9638 2.82569 19.7959 2.81673 19.7266 2.97568C19.6933 3.09325 19.7004 3.21858 19.7467 3.33164C19.7803 3.43463 19.8855 3.51522 19.9325 3.6182C20.454 4.64803 21.0964 5.61069 21.853 6.48604C22.2425 6.95618 22.4551 7.54721 22.4574 8.15839C22.4686 9.10986 22.4865 10.0636 22.5335 11.015C22.5648 11.662 22.6454 12.3068 22.7081 12.9538C22.7864 13.7866 22.8581 14.6194 22.9521 15.45C23.1401 16.4731 23.4758 17.4649 23.9504 18.3917C24.0735 18.7141 24.2167 19.0298 24.3801 19.3342C24.9912 20.3797 25.6426 21.4006 26.238 22.4528C26.567 22.9677 26.7595 23.5565 26.7976 24.1655C26.8133 24.9289 26.8424 25.6923 26.8379 26.4557C26.8289 27.6499 26.8073 28.844 26.773 30.0377C26.7394 31.1325 26.6723 32.2295 26.6297 33.3242C26.5961 34.204 26.5805 35.0839 26.5402 35.9637C26.5196 36.1009 26.4571 36.2284 26.3611 36.3286C26.0231 36.7181 25.6583 37.0741 25.3292 37.4771C24.5256 38.4599 23.7624 39.4718 23.0349 40.5106C22.2708 41.5961 21.612 42.7521 21.0673 43.9627C20.7786 44.6053 20.5279 45.2657 20.2526 45.9306C20.172 45.9306 20.0847 45.9485 19.9996 45.9463C19.4244 45.9239 18.8469 45.9037 18.2716 45.8746C17.6001 45.8411 16.9286 45.7963 16.2436 45.7627C16.1147 45.7547 15.9853 45.7683 15.8609 45.803C15.8242 45.8183 15.7916 45.8421 15.7659 45.8725C15.7402 45.9028 15.7222 45.9389 15.7131 45.9776C15.7131 46.0425 15.787 46.1254 15.8474 46.1702C15.9124 46.2037 15.9817 46.2216 16.0556 46.2172C16.4138 46.2351 16.7719 46.2508 17.1323 46.2597C18.0276 46.2799 18.9476 46.2933 19.8564 46.3157C19.9392 46.3224 20.0243 46.3381 20.1048 46.3582C20.1122 46.4064 20.1122 46.4555 20.1048 46.5037C19.7803 47.8067 19.4333 49.1007 19.1334 50.4081C18.9225 51.2476 18.7677 52.1002 18.67 52.9603C18.5134 54.3522 18.4999 55.7566 18.6298 57.1512C18.6309 57.226 18.6272 57.3008 18.6186 57.3751C18.5178 57.3908 18.435 57.4109 18.3522 57.4154C17.7859 57.4579 17.7613 57.4759 17.5867 57.9997L17.327 58.7855C16.8077 58.8191 16.3063 58.8661 15.8027 58.8773C14.303 58.9131 12.801 58.9243 11.3013 58.9579C9.19945 59.0094 7.09985 59.0766 4.99801 59.1258C5.7434 59.7907 6.51787 60.4243 7.31698 61.0332H7.58558C7.54529 61.078 7.49829 61.0982 7.45799 61.1385C7.68183 61.3041 7.89448 61.4698 8.11608 61.631L8.42497 61.4407C9.28899 61.9511 10.0814 62.4302 10.8894 62.9026ZM37.4926 60.1467C36.9554 60.5541 36.3734 60.9146 35.8384 61.3153C35.2428 61.7227 34.5797 62.0213 33.8798 62.1974C33.1501 62.4213 32.4092 62.5959 31.675 62.8041C30.9722 62.9689 30.2491 63.0307 29.5284 62.9877C28.2189 62.9675 26.9151 62.8107 25.6381 62.5198C25.2466 62.4254 24.8516 62.3462 24.454 62.2825C24.1067 62.2482 23.7772 62.1119 23.5072 61.8907C22.9812 61.4429 22.4887 60.9347 21.9806 60.4512L22.0343 60.3549L23.9302 60.2541C24.0082 60.2485 24.0864 60.2607 24.1589 60.2898C24.2314 60.3189 24.2964 60.3641 24.3488 60.4221C24.5727 60.6459 24.8301 60.8317 25.0763 61.031C25.3583 61.2616 25.703 61.3959 26.0679 61.4183C26.2175 61.4513 26.374 61.4265 26.506 61.3488C26.638 61.2712 26.7358 61.1464 26.7797 60.9996C26.8782 60.7355 26.9341 60.4534 27.0214 60.131L38.1484 59.4728C37.947 59.7146 37.7299 59.9407 37.4926 60.1467ZM30.5335 50.7775C31.1401 49.9536 31.7489 49.1275 32.3242 48.2813C32.8109 47.5515 33.1058 46.7106 33.1815 45.8366C33.3135 44.5851 33.2576 43.3314 33.3381 42.08C33.374 41.5046 33.4635 40.9337 33.5217 40.3606C33.5441 40.1367 33.5508 39.9128 33.5665 39.6173C33.8418 39.7315 34.088 39.8412 34.3387 39.9352C35.3169 40.3203 36.2839 40.7389 37.2777 41.077C38.3544 41.4419 39.4601 41.724 40.548 42.0553C41.112 42.2277 41.6672 42.4337 42.2268 42.6195C42.2697 42.626 42.3106 42.6426 42.3458 42.6681C42.3811 42.6935 42.4097 42.727 42.4294 42.7658C42.4491 42.8045 42.4593 42.8474 42.4591 42.8909C42.4589 42.9344 42.4483 42.9772 42.4282 43.0158C42.3521 43.2755 42.3006 43.5441 42.2357 43.8083C42.0231 44.7866 42.135 45.8097 42.5558 46.7187C42.8916 47.4798 43.1758 48.2679 43.4041 49.0693C43.5698 49.8305 43.6705 50.6051 43.7018 51.3842C43.8093 52.8618 43.8764 54.3438 43.9548 55.8237C43.9593 56.0251 43.9481 56.2266 43.919 56.4259C43.8115 56.952 43.8294 57.496 43.966 58.0154C43.2452 58.0467 42.5692 58.0803 41.8955 58.1049L37.4478 58.2617C36.4383 58.2997 35.4333 58.349 34.4215 58.387C33.4993 58.4206 32.5771 58.443 31.6549 58.4743L27.4669 58.6109H26.9006C26.6974 57.7566 26.6324 56.8753 26.7081 56.0005C26.769 55.597 26.9536 55.2223 27.2363 54.9282C27.8407 54.1647 28.4786 53.4259 29.0875 52.6648C29.5844 52.0446 30.0679 51.4156 30.5402 50.7775H30.5335ZM20.1026 52.8551C20.2571 51.6238 20.5346 50.4148 20.9286 49.2395C21.1793 48.4716 21.4098 47.6992 21.6516 46.9313C21.7075 46.7522 21.7836 46.5798 21.8754 46.3582H23.0304C24.2548 46.3918 25.4926 46.4321 26.7058 46.4679H26.8379C27.0013 46.4679 27.1311 46.4187 27.1356 46.244C27.1401 46.0694 27.0035 46.0202 26.8424 46.0202L22.7305 45.9754H22.059C22.1306 45.7806 22.1686 45.6485 22.2268 45.5276C22.9588 43.9605 23.6482 42.371 24.5256 40.8733C24.9912 40.0808 25.3762 39.239 25.8261 38.4353C26.0321 38.0659 26.3029 37.7323 26.5469 37.3808L26.6342 37.4122C26.679 37.692 26.6991 37.9786 26.7707 38.2517C27.0438 39.3106 27.3191 40.3696 27.6236 41.4195C27.8474 42.1516 28.116 42.8635 28.3421 43.5934C28.5973 44.4195 28.8256 45.2523 29.0628 46.0761C28.8771 46.2619 28.7025 46.4299 28.5391 46.6067C27.9497 47.2365 27.4728 47.9627 27.1289 48.7537C26.8357 49.4253 26.5223 50.0969 26.2134 50.7686C25.8441 51.5655 25.477 52.3625 25.0942 53.1506C25.0359 53.2913 24.9422 53.4146 24.8222 53.5084C24.7022 53.6021 24.5599 53.6632 24.4093 53.6856C24.1425 53.7227 23.8964 53.85 23.7119 54.0463C23.5274 54.2426 23.4157 54.4961 23.3953 54.7647C23.2252 55.7462 23.2252 56.7496 23.3953 57.7311C23.44 58.0423 23.4714 58.3557 23.5117 58.7027L20.0175 58.7743C19.9348 58.4991 19.8794 58.2164 19.8519 57.9303C19.8341 56.2349 19.9201 54.54 20.1093 52.8551H20.1026ZM18.5626 58.1833C18.726 58.3937 18.726 58.3937 18.6812 58.7833H18.153C18.1665 58.6564 18.2118 58.5349 18.2845 58.4301C18.3573 58.3252 18.4552 58.2404 18.5693 58.1833H18.5626ZM19.3908 60.4355C19.3751 60.9191 19.4445 61.3444 18.9588 61.6063C18.7034 61.7735 18.4616 61.9606 18.2358 62.166C17.9564 61.6678 17.7926 61.1131 17.7568 60.5429L19.3908 60.4355ZM16.9868 60.572L17.4815 62.6944C17.4307 62.7354 17.3741 62.7686 17.3136 62.7929C16.8659 62.9138 16.4182 63.0459 15.9706 63.1309C15.633 63.1962 15.2887 63.2202 14.9454 63.2026C14.443 63.1744 13.9428 63.1145 13.4479 63.0235C12.139 62.7346 10.9008 62.1874 9.80606 61.4138C9.60236 61.284 9.39643 61.1608 9.1905 61.0332C11.8184 60.7803 14.4171 60.6683 16.9935 60.572H16.9868ZM19.7691 24.6737C21.4255 24.6625 23.0797 24.6087 24.7249 24.5864C25.0181 24.5796 25.28 24.5684 25.6202 24.5684C25.9604 24.5684 26.0142 24.6087 26.0679 24.9177C26.1094 25.1586 26.1385 25.4014 26.1552 25.6453C26.1618 25.7257 26.1379 25.8057 26.088 25.8692C26.0382 25.9327 25.9663 25.9751 25.8866 25.9878C25.7862 26.0003 25.6847 26.0003 25.5844 25.9878C24.0556 25.9833 22.5268 25.9923 20.998 25.9699C19.7803 25.9542 18.5626 25.8983 17.3449 25.8669C16.4339 25.8445 15.5206 25.8692 14.6119 25.8065C13.8217 25.7505 13.0405 25.8311 12.2548 25.7684C12.0444 25.7483 11.8407 25.7796 11.6169 25.7684C11.5084 25.7457 11.4032 25.7096 11.3035 25.661C11.3841 25.3408 11.4446 25.0363 11.5274 24.7408C11.5721 24.5819 11.7243 24.5393 11.8766 24.5393C12.1228 24.5416 12.369 24.5572 12.613 24.5572C13.7053 24.5796 14.7976 24.6087 15.89 24.6266C17.1838 24.649 18.4775 24.6737 19.7691 24.6737ZM16.5346 17.7223C17.1971 17.667 17.8622 17.6476 18.5268 17.6641C19.6773 17.6395 20.8323 17.6753 21.9851 17.6865H22.3298C22.8133 17.6485 23.0371 17.8611 23.0371 18.3962C22.9509 18.4919 22.8433 18.5658 22.7231 18.6121C22.603 18.6584 22.4736 18.6757 22.3455 18.6626C20.6174 18.6066 18.8894 18.5708 17.1614 18.5104C16.2593 18.479 15.3505 18.4074 14.4552 18.4365C13.7165 18.4589 12.9711 18.3649 12.2302 18.3469C11.693 18.3313 11.1536 18.3604 10.6163 18.3604C9.70757 18.3581 8.79878 18.3313 7.89224 18.3313L6.54921 18.3111C5.97171 18.2999 5.39645 18.2843 4.82118 18.2999C4.72326 18.3165 4.62261 18.2989 4.53618 18.25C4.44975 18.201 4.38281 18.1238 4.34665 18.0313C4.35784 18.0044 4.34441 17.9686 4.35784 17.9485C4.70703 17.4134 4.70702 17.4089 5.37854 17.4268C6.80215 17.4626 8.22352 17.5119 9.64713 17.5388C10.5089 17.5544 11.3729 17.5253 12.2347 17.5388C13.0383 17.5522 13.8396 17.5903 14.6432 17.6306C15.2699 17.7156 15.9034 17.747 16.5346 17.7223ZM13.7926 14.1C11.9639 14.0441 10.1284 13.9903 8.29067 13.9388L3.02152 13.7956C2.82902 13.7911 2.63652 13.7687 2.38135 13.7687C2.49327 13.5717 2.54027 13.4665 2.60519 13.3724C2.65578 13.2871 2.73016 13.2183 2.81921 13.1746C2.90826 13.1309 3.00812 13.114 3.10658 13.1262C4.08476 13.1866 5.06293 13.2247 6.0411 13.2538C7.49157 13.2963 8.94652 13.321 10.4015 13.3613C11.9683 13.4038 13.5352 13.4553 15.1021 13.5023C16.2951 13.5381 17.4904 13.5896 18.6835 13.603C19.4848 13.6142 20.2615 13.5583 21.0517 13.5583C21.1045 13.5572 21.1569 13.5676 21.2052 13.5889C21.2535 13.6102 21.2966 13.6417 21.3315 13.6814C21.3446 13.732 21.346 13.7849 21.3355 13.8362C21.3251 13.8874 21.303 13.9355 21.271 13.9769C21.2029 14.0784 21.1095 14.1603 20.9999 14.2145C20.8904 14.2687 20.7685 14.2933 20.6465 14.2859C19.4266 14.2456 18.2045 14.2321 16.9845 14.1985C15.9191 14.1717 14.8558 14.1314 13.7926 14.1ZM11.7893 52.0133C11.9146 52.3603 11.8318 52.4633 11.4714 52.4454C10.3925 52.3894 9.31361 52.3402 8.23247 52.2954C7.10881 52.2506 5.98514 52.2125 4.86147 52.179C4.73181 52.1758 4.60625 52.1328 4.50177 52.0559C4.39729 51.9791 4.31892 51.872 4.27726 51.7491C4.23323 51.6266 4.19881 51.5009 4.17429 51.373L4.81223 50.7171L4.89505 51.0171L11.4781 51.3753L11.6124 51.0148C11.599 51.3573 11.6572 51.6976 11.7893 52.0133ZM24.9577 32.1399C25.3315 32.1511 25.3315 32.1489 25.4188 32.525C25.4362 32.5785 25.4571 32.6309 25.4814 32.6817C25.407 32.7532 25.3166 32.8059 25.2177 32.8355C25.1189 32.8651 25.0144 32.8707 24.9129 32.8518C23.6751 32.7735 22.4372 32.6906 21.1994 32.6279C20.1362 32.5742 19.0707 32.5451 18.0052 32.5003C17.3494 32.4735 16.6913 32.4511 16.0355 32.3884C15.8631 32.3727 15.7042 32.2138 15.5274 32.1153C15.637 31.7907 15.796 31.6474 16.0668 31.681C17.1569 31.8153 18.2515 31.7929 19.346 31.8354C20.7428 31.8936 22.1373 32.0011 23.534 32.0817C24.0086 32.1108 24.4831 32.1242 24.9577 32.1399ZM17.5173 15.6045C18.5492 15.6224 19.5855 15.656 20.6107 15.6828H21.7053C21.6986 16.0701 21.6874 16.0992 21.3942 16.0992C20.7898 16.1015 20.1854 16.1015 19.5811 16.0858C18.7752 16.0657 17.9672 16.0567 17.1658 15.9918C16.7251 16.0148 16.2837 15.9618 15.8609 15.8351C15.4919 15.9098 15.1121 15.9136 14.7417 15.8463C14.0321 15.8373 13.3494 15.8127 12.6107 15.8015C11.8721 15.7903 11.1334 15.7858 10.3925 15.7724L4.82342 15.6784C4.74207 15.6711 4.66131 15.6584 4.58168 15.6403C4.6242 15.3067 4.66673 15.2709 4.97563 15.2709C5.70982 15.2888 6.44625 15.3067 7.18044 15.3291C8.47646 15.3694 9.77024 15.4164 11.0663 15.4545C11.4266 15.4657 11.787 15.4545 12.1474 15.4545C12.2336 15.4432 12.3209 15.4432 12.4071 15.4545C13.1882 15.5731 13.9784 15.6112 14.7685 15.5709C15.6818 15.6313 16.5995 15.5888 17.5173 15.6045ZM7.46695 11.4919C7.3125 11.4897 7.11328 11.5568 7.0036 11.3352C7.10209 11.1337 7.31698 11.0218 7.53858 11.0553C8.54361 11.0934 9.55088 11.1359 10.5582 11.1538C12.0086 11.1807 13.4658 11.1829 14.9185 11.2076C16.1698 11.2277 17.421 11.2703 18.6723 11.2882C19.393 11.3038 20.1116 11.2882 20.8301 11.2882C20.9801 11.3016 21.13 11.324 21.2778 11.3576C21.2397 11.6799 21.0382 11.7091 20.8301 11.7091C20.0243 11.7046 19.2162 11.6934 18.4082 11.6822C18.0925 11.6799 17.7747 11.6643 17.4591 11.6643C14.7797 11.6038 12.0982 11.5456 9.4121 11.4919H7.46695ZM10.1508 48.1335C11.3573 48.2097 12.5637 48.2903 13.7725 48.3529C15.4266 48.438 17.083 48.5074 18.7394 48.5768C18.9582 48.5799 19.1711 48.6485 19.3505 48.7738C19.2927 48.8622 19.2107 48.9321 19.1142 48.9749C19.0177 49.0178 18.9109 49.032 18.8066 49.0156C18.4893 49.01 18.1722 48.9988 17.8553 48.982C16.228 48.8947 14.6029 48.8007 12.9756 48.7134C11.8407 48.6529 10.7059 48.6037 9.57103 48.5477C9.32033 48.5365 9.15469 48.4335 9.18155 48.2992C9.22184 48.0932 9.39643 48.0753 9.55312 48.0753C9.75233 48.0776 9.95155 48.1201 10.1508 48.1335ZM20.2011 23.1155C20.9039 23.1155 21.6001 23.0953 22.3074 23.0662C23.0864 23.0416 23.8631 23.008 24.6398 22.9789C24.714 22.9693 24.7889 22.9655 24.8636 22.9677C24.9935 22.9789 25.1457 22.9924 25.1457 23.167C25.149 23.2069 25.1444 23.247 25.1322 23.2851C25.1199 23.3232 25.1001 23.3585 25.0741 23.3889C25.0481 23.4193 25.0163 23.4443 24.9805 23.4623C24.9448 23.4803 24.9058 23.491 24.8659 23.4938C24.7808 23.514 24.6913 23.4938 24.6062 23.4938C22.9655 23.5722 21.3225 23.5677 19.6818 23.4759C18.8178 23.4603 17.9336 23.4759 17.0271 23.4759C17.0136 23.0774 17.0204 23.0506 17.3113 23.0506C17.815 23.0438 18.3186 23.0483 18.8223 23.0618C19.2834 23.073 19.7422 23.1155 20.2011 23.1155ZM11.9504 28.681C11.4334 28.6721 10.9163 28.6855 10.3947 28.6698C10.2241 28.6575 10.0544 28.6343 9.88664 28.6004C9.95155 28.2892 10.1038 28.231 10.2918 28.231C10.7641 28.2579 11.2341 28.2982 11.7064 28.334C11.7355 28.3363 11.7624 28.3542 11.7893 28.3542C12.4787 28.381 13.1681 28.4169 13.8598 28.4325C14.6342 28.4572 15.4087 28.4572 16.1832 28.4572C17.0293 28.4683 17.8754 28.4572 18.7215 28.4572C18.8715 28.4683 19.0215 28.4885 19.1692 28.5198C19.073 28.8668 19.0058 28.9161 18.7618 28.9161C17.5553 28.8646 16.3488 28.8042 15.1424 28.7594C14.5671 28.7415 13.9896 28.7549 13.4143 28.7415C12.9264 28.7303 12.4384 28.681 11.9504 28.681ZM25.9045 29.9482C26.0052 29.9482 26.1753 30.0511 26.191 30.1407C26.2246 30.3287 26.0925 30.3713 25.9045 30.3646C25.7165 30.3579 25.5284 30.3332 25.3427 30.3332V30.2974C23.0371 30.219 20.7316 30.1429 18.4238 30.0735C18.1798 30.0735 17.9336 30.0959 17.6896 30.0735C17.6369 30.0667 17.5865 30.0476 17.5425 30.0176C17.4986 29.9877 17.4623 29.9478 17.4367 29.9011C17.4009 29.7489 17.5352 29.6594 17.674 29.6594C17.9873 29.6482 18.3007 29.6437 18.6141 29.6594C19.5923 29.7109 20.5704 29.7691 21.5486 29.8273C22.0097 29.8564 22.4686 29.8944 22.9297 29.9213C23.2878 29.9414 23.646 29.9594 24.0041 29.9594C24.6376 29.9594 25.271 29.9482 25.9045 29.9482ZM13.8911 50.2089C13.9512 50.2016 14.0121 50.2101 14.0679 50.2335C14.1284 50.2738 14.2134 50.3432 14.2134 50.4014C14.2093 50.4429 14.1949 50.4826 14.1714 50.5171C14.148 50.5515 14.1162 50.5795 14.0791 50.5984C13.9552 50.6358 13.8256 50.651 13.6964 50.6432C12.7048 50.5917 11.7132 50.5312 10.7216 50.4842C10.247 50.4551 9.77024 50.4686 9.2957 50.4551C9.07187 50.4551 9.07187 50.4372 8.84803 50.2313C8.88165 50.1263 8.95429 50.0383 9.05093 49.9854C9.14757 49.9325 9.26083 49.9187 9.36733 49.9469C10.3119 50.0432 11.261 50.0924 12.2078 50.1462C12.7719 50.1798 13.3293 50.1887 13.8911 50.2089Z" fill="#71717A"/>
</g>
</svg>
