<svg width="92" height="32" viewBox="0 0 92 32" fill="none" xmlns="http://www.w3.org/2000/svg">
<g clip-path="url(#clip0_40002470_18402)">
<path d="M4.49587 16.553L5.93498 6.97644H8.87075V20.4646H6.8752V10.7917L5.4169 20.4646H3.42134L1.84791 10.9265V20.4646H0.00585938V6.97644H2.94164L4.49587 16.553Z" fill="#F9423A"/>
<path d="M17.236 20.4646H15.1062L14.7416 18.0175H12.1512L11.7866 20.4646H9.84863L11.9977 6.97644H15.087L17.236 20.4646ZM12.4201 16.1872H14.454L13.437 9.366L12.4201 16.1872Z" fill="#F9423A"/>
<path d="M21.0547 6.82227C23.1078 6.82227 24.1632 8.05547 24.1632 10.2136V10.6375H22.1676V10.0787C22.1676 9.11526 21.7839 8.74892 21.1123 8.74892C20.4407 8.74892 20.0569 9.11526 20.0569 10.0787C20.0569 12.8534 24.1824 13.3734 24.1824 17.2272C24.1824 19.3853 23.1078 20.6185 21.0355 20.6185C18.9632 20.6185 17.8887 19.3853 17.8887 17.2272V16.3989H19.8842V17.3621C19.8842 18.3255 20.3064 18.6726 20.978 18.6726C21.6495 18.6726 22.0717 18.3255 22.0717 17.3621C22.0717 14.5874 17.9462 14.0673 17.9462 10.2136C17.9462 8.05547 19.0016 6.82227 21.0547 6.82227Z" fill="#F9423A"/>
<path d="M24.7773 6.97644H31.3013V8.90332H29.0947V20.4644H26.984V8.90332H24.7773V6.97644Z" fill="#F9423A"/>
<path d="M34.3324 12.661H37.2298V14.5876H34.3324V18.5377H37.9781V20.4646H32.2217V6.97644H37.9781V8.90332H34.3324V12.6607V12.661Z" fill="#F9423A"/>
<path d="M43.6965 20.4646C43.5813 20.1178 43.5046 19.9058 43.5046 18.8075V16.6879C43.5046 15.4354 43.0824 14.973 42.123 14.973H41.3939V20.4644H39.2832V6.9762H42.4684C44.6559 6.9762 45.5961 7.99744 45.5961 10.0785V11.138C45.5961 12.5256 45.1548 13.431 44.2145 13.8744C45.2699 14.3176 45.6153 15.3389 45.6153 16.7455V18.8265C45.6153 19.4814 45.6345 19.9634 45.8455 20.4644H43.6965V20.4646ZM41.3939 8.90354V13.0463H42.219C43.0057 13.0463 43.4854 12.6995 43.4854 11.6204V10.2909C43.4854 9.32745 43.1592 8.90354 42.4109 8.90354H41.3939Z" fill="#F9423A"/>
<path d="M49.8367 6.82227C51.8898 6.82227 52.9449 8.05547 52.9449 10.2136V10.6375H50.9496V10.0787C50.9496 9.11526 50.5658 8.74892 49.8943 8.74892C49.2227 8.74892 48.8389 9.11526 48.8389 10.0787C48.8389 12.8534 52.9644 13.3734 52.9644 17.2272C52.9644 19.3853 51.8901 20.6185 49.8177 20.6185C47.7454 20.6185 46.6709 19.3853 46.6709 17.2272V16.3989H48.6665V17.3621C48.6665 18.3255 49.0886 18.6726 49.7602 18.6726C50.4318 18.6726 50.8539 18.3255 50.8539 17.3621C50.8539 14.5874 46.7282 14.0673 46.7282 10.2136C46.7282 8.05547 47.7836 6.82227 49.8367 6.82227Z" fill="#F9423A"/>
<path d="M26.3093 22.1425C27.7758 22.1425 28.5296 23.0233 28.5296 24.5648V24.8676H27.1042V24.4685C27.1042 23.7803 26.8304 23.5188 26.3504 23.5188C25.8705 23.5188 25.5966 23.7803 25.5966 24.4685C25.5966 26.4504 28.5431 26.822 28.5431 29.5745C28.5431 31.1162 27.7758 31.9971 26.2956 31.9971C24.8154 31.9971 24.0479 31.1162 24.0479 29.5745V28.9829H25.473V29.6711C25.473 30.359 25.7746 30.6067 26.2543 30.6067C26.734 30.6067 27.0355 30.359 27.0355 29.6711C27.0355 27.6891 24.089 27.3175 24.089 24.5648C24.089 23.0233 24.8428 22.1425 26.3093 22.1425Z" fill="#404040"/>
<path d="M30.9149 26.3126H32.9844V27.6889H30.9149V30.5102H33.519V31.8865H29.4072V22.2526H33.519V23.6289H30.9149V26.3126Z" fill="#404040"/>
<path d="M37.6025 31.8865C37.5203 31.6388 37.4655 31.4874 37.4655 30.7029V29.1889C37.4655 28.2945 37.1639 27.9639 36.4787 27.9639H35.9578V31.8865H34.4502V22.2526H36.7254C38.2878 22.2526 38.9592 22.982 38.9592 24.4682V25.2252C38.9592 26.2162 38.6439 26.8631 37.9726 27.1796C38.7264 27.4962 38.9731 28.2259 38.9731 29.2304V30.7166C38.9731 31.1846 38.9868 31.5287 39.1376 31.8865H37.6025ZM35.9578 23.6289V26.5878H36.5472C37.1091 26.5878 37.4518 26.3401 37.4518 25.5693V24.6196C37.4518 23.9315 37.2188 23.6289 36.6845 23.6289H35.9578Z" fill="#404040"/>
<path d="M39.96 22.2526H41.4676V31.8865H39.96V22.2526Z" fill="#404040"/>
<path d="M44.0721 26.3126H46.1417V27.6889H44.0721V30.5102H46.6762V31.8865H42.5645V22.2526H46.6762V23.6289H44.0721V26.3126Z" fill="#404040"/>
<path d="M49.6365 22.1425C51.103 22.1425 51.8568 23.0233 51.8568 24.5648V24.8676H50.4314V24.4685C50.4314 23.7803 50.1575 23.5188 49.6776 23.5188C49.1976 23.5188 48.9238 23.7803 48.9238 24.4685C48.9238 26.4504 51.8703 26.822 51.8703 29.5745C51.8703 31.1162 51.103 31.9971 49.6227 31.9971C48.1425 31.9971 47.375 31.1162 47.375 29.5745V28.9829H48.8002V29.6711C48.8002 30.359 49.1017 30.6067 49.5814 30.6067C50.0611 30.6067 50.3626 30.359 50.3626 29.6711C50.3626 27.6891 47.4161 27.3175 47.4161 24.5648C47.4161 23.0233 48.1699 22.1425 49.6365 22.1425Z" fill="#404040"/>
<path d="M64.5546 0.0933838L56.9278 6.609L55.8135 17.3406L71.184 18.691L80.8087 13.9791L64.5546 0.0933838Z" fill="#F9423A"/>
<path d="M84.4427 17.0828L74.0533 23.2219L55.503 20.3364L54.2969 31.9544H81.4775L91.9361 23.4844L84.4427 17.0828Z" fill="#00968F"/>
</g>
<defs>
<clipPath id="clip0_40002470_18402">
<rect width="92" height="32" fill="white"/>
</clipPath>
</defs>
</svg>
