<svg width="106" height="32" viewBox="0 0 106 32" fill="none" xmlns="http://www.w3.org/2000/svg">
<g clip-path="url(#clip0_40002972_5414)">
<path d="M105.102 1.76343C105.102 1.76343 105.101 1.76184 105.1 1.76184L31.0498 8.26283C31.9668 10.1538 32.5649 12.2395 32.7582 14.4595C32.8272 15.2513 32.8378 16.0343 32.8037 16.8073L105.853 10.3941C105.853 10.3941 105.855 10.3932 105.855 10.3923L105.102 1.76343Z" fill="#F9423A"/>
<path d="M40.2426 16.1834L38.1489 16.3673L35.8948 10.5635L35.8577 10.5666L34.6422 16.6755L32.5362 16.8602L29.2783 8.27512L31.558 8.07494L33.4564 13.81L33.4934 13.8066L34.5441 7.81259L36.7495 7.619L38.8336 13.3375L38.8707 13.3343L39.7725 7.35324L41.978 7.15942L40.2426 16.1832V16.1834Z" fill="white"/>
<path d="M52.2579 10.6549C52.3187 11.3511 52.2543 11.998 52.0648 12.5951C51.8755 13.1924 51.586 13.7148 51.1966 14.1626C50.8065 14.6104 50.3285 14.9717 49.7616 15.2468C49.1944 15.5223 48.5685 15.69 47.8826 15.7504C47.197 15.8105 46.5534 15.7544 45.9515 15.5813C45.3497 15.4088 44.8181 15.1362 44.3572 14.7631C43.8957 14.39 43.5203 13.9261 43.2306 13.3708C42.9407 12.8159 42.7657 12.1902 42.7051 11.4937C42.6438 10.7892 42.7078 10.1422 42.898 9.55325C43.0882 8.96454 43.3783 8.45231 43.7693 8.0168C44.16 7.58173 44.6372 7.23064 45.2007 6.96397C45.7642 6.69753 46.3886 6.5339 47.0742 6.47376C47.7596 6.41339 48.4052 6.46559 49.0104 6.62967C49.6157 6.79353 50.148 7.05588 50.6082 7.41651C51.0684 7.77713 51.4427 8.23081 51.7319 8.77753C52.0211 9.32448 52.1964 9.95018 52.2576 10.6546L52.2579 10.6549ZM49.9906 10.8539C49.9574 10.4726 49.8642 10.1215 49.7116 9.80085C49.559 9.48017 49.3627 9.21101 49.123 8.99404C48.8835 8.77708 48.6029 8.61367 48.2813 8.50428C47.9595 8.39466 47.6129 8.35654 47.2411 8.38899C46.8693 8.42144 46.5367 8.51926 46.2429 8.68312C45.9492 8.84675 45.7011 9.05668 45.499 9.312C45.2963 9.568 45.1498 9.86712 45.0591 10.2091C44.9682 10.5514 44.9395 10.9131 44.9725 11.2942C45.0071 11.692 45.1012 12.0536 45.2543 12.3783C45.4076 12.7035 45.6039 12.9766 45.8438 13.1972C46.0835 13.4187 46.3621 13.5839 46.6798 13.694C46.9971 13.8036 47.342 13.8424 47.7135 13.8099C48.085 13.7775 48.4179 13.679 48.7116 13.5156C49.0054 13.3517 49.2532 13.1402 49.4552 12.8799C49.6576 12.6203 49.8057 12.3171 49.9004 11.97C49.9949 11.6235 50.025 11.2511 49.9902 10.8532L49.9906 10.8539Z" fill="white"/>
<path d="M58.7405 14.5591L56.5312 11.232L55.8094 11.2955L56.114 14.7896L54.0451 14.9712L53.2773 6.16733L56.6228 5.87366C57.0438 5.83667 57.4586 5.84416 57.867 5.89613C58.2751 5.9481 58.6471 6.06339 58.9834 6.24268C59.3192 6.42197 59.5971 6.67321 59.8171 6.99661C60.0367 7.31979 60.1685 7.7342 60.2126 8.24008C60.2644 8.83673 60.1473 9.35235 59.8605 9.78696C59.5736 10.2216 59.153 10.5507 58.5983 10.7749L61.2189 14.3414L58.7407 14.5591H58.7405ZM58.1218 8.4609C58.1037 8.25392 58.0451 8.08983 57.947 7.96887C57.8486 7.84813 57.7279 7.75848 57.585 7.6997C57.4416 7.64138 57.284 7.60711 57.1117 7.59735C56.9394 7.58737 56.7743 7.58941 56.6167 7.60325L55.4837 7.70265L55.6626 9.75429L56.6712 9.66577C56.8455 9.65057 57.0228 9.62039 57.2028 9.57522C57.383 9.53029 57.5443 9.46401 57.6874 9.37596C57.8303 9.28813 57.9434 9.17011 58.0264 9.02078C58.1094 8.87144 58.1415 8.6849 58.122 8.4609H58.1218Z" fill="white"/>
<path d="M62.2597 14.25L61.4922 5.44614L63.6233 5.25891L64.2293 12.2099L67.624 11.912L67.7857 13.7648L62.2597 14.2502V14.25Z" fill="white"/>
<path d="M76.5801 8.53176C76.6475 9.30271 76.563 9.98039 76.3269 10.565C76.0906 11.1496 75.7548 11.6428 75.3197 12.0445C74.8841 12.4462 74.381 12.7578 73.8093 12.9789C73.2374 13.2004 72.6502 13.3377 72.0473 13.3905L68.7763 13.6779L68.0088 4.874L71.1805 4.59531C71.7999 4.54107 72.4175 4.56013 73.033 4.65205C73.6486 4.74396 74.2064 4.93732 74.7064 5.23168C75.2066 5.52626 75.6256 5.94249 75.9642 6.48081C76.3022 7.01914 76.5076 7.70294 76.5799 8.53176H76.5801ZM74.3749 8.72558C74.3315 8.22833 74.215 7.823 74.0253 7.50936C73.8356 7.19616 73.5979 6.95446 73.3127 6.78288C73.0274 6.61154 72.7094 6.49965 72.3596 6.44677C72.0095 6.39435 71.6529 6.38368 71.2895 6.41545L70.2364 6.50782L70.6851 11.656L71.6887 11.5677C72.0688 11.5345 72.4304 11.459 72.7739 11.341C73.1174 11.2229 73.4147 11.0527 73.6657 10.8303C73.9165 10.6079 74.1085 10.3238 74.2406 9.97789C74.3729 9.63247 74.4176 9.21511 74.3751 8.72558H74.3749Z" fill="white"/>
<path d="M87.7315 11.8564C87.1845 12.1677 86.5391 12.3559 85.7956 12.4212C85.1183 12.4807 84.4826 12.4237 83.889 12.2501C83.2954 12.0767 82.7704 11.8035 82.3131 11.4301C81.8559 11.0568 81.4828 10.5945 81.1935 10.0437C80.9039 9.49266 80.7295 8.87332 80.6696 8.1852C80.6083 7.48075 80.6743 6.83167 80.8681 6.23819C81.0617 5.64495 81.3559 5.12841 81.7505 4.68858C82.1447 4.24875 82.622 3.89584 83.1812 3.6294C83.7407 3.36319 84.3549 3.20046 85.0238 3.14191C85.6432 3.08767 86.2619 3.14395 86.8801 3.31099C87.4979 3.47802 88.0115 3.75695 88.4201 4.14685L87.1085 5.71553C86.8864 5.4593 86.6085 5.2791 86.2745 5.1747C85.941 5.07053 85.6047 5.03309 85.266 5.06282C84.8942 5.0955 84.5595 5.19377 84.2619 5.35785C83.9641 5.52194 83.7142 5.73369 83.5121 5.99377C83.3101 6.25386 83.1613 6.55298 83.0659 6.89113C82.9707 7.22974 82.94 7.59377 82.9741 7.98322C83.0087 8.38129 83.1023 8.74078 83.2552 9.06146C83.4081 9.38191 83.6041 9.65085 83.8438 9.86782C84.0833 10.085 84.3614 10.2466 84.6785 10.3523C84.9957 10.4581 85.3358 10.4951 85.6997 10.4631C86.1208 10.4261 86.4812 10.311 86.7806 10.1177C87.0798 9.92409 87.3129 9.68671 87.48 9.40461L89.0759 10.6678C88.7267 11.1494 88.2787 11.5459 87.7315 11.8568V11.8564Z" fill="white"/>
<path d="M97.091 9.30567C96.9515 9.75617 96.7299 10.152 96.4266 10.4919C96.1232 10.8317 95.7457 11.1092 95.2944 11.3239C94.8428 11.5391 94.3322 11.6719 93.7623 11.722C93.1839 11.7729 92.6561 11.7313 92.1783 11.5976C91.7004 11.4642 91.2873 11.2563 90.9379 10.9738C90.5888 10.6912 90.3086 10.3397 90.0972 9.91981C89.8855 9.49995 89.7568 9.02471 89.7105 8.4941L89.2324 3.0103L91.3386 2.82533L91.8015 8.13506C91.8226 8.37586 91.8734 8.60077 91.9542 8.81092C92.0347 9.02085 92.1466 9.20536 92.2895 9.36422C92.4322 9.52286 92.6133 9.64269 92.8327 9.72349C93.052 9.80474 93.3103 9.8322 93.6077 9.8061C93.905 9.78 94.1547 9.70783 94.3566 9.58982C94.5585 9.47158 94.7182 9.32201 94.8356 9.14068C94.9527 8.95912 95.0309 8.75782 95.0701 8.53745C95.109 8.31685 95.118 8.08673 95.097 7.84593L94.6341 2.5362L96.7527 2.3501L97.2308 7.8339C97.2771 8.36451 97.2303 8.85518 97.0906 9.3059L97.091 9.30567Z" fill="white"/>
<path d="M105.353 4.32642C105.397 4.84069 105.34 5.28211 105.181 5.65091C105.022 6.01993 104.79 6.32631 104.487 6.57028C104.184 6.81403 103.826 7.00398 103.413 7.14083C103.001 7.27723 102.567 7.36529 102.113 7.40523L101.06 7.49782L101.349 10.8179L99.2306 11.0038L98.4629 2.1999L101.684 1.91712C102.163 1.87491 102.616 1.88353 103.041 1.94185C103.466 2.00086 103.843 2.12228 104.171 2.30611C104.5 2.49039 104.767 2.74685 104.975 3.07502C105.183 3.40364 105.309 3.82078 105.353 4.32642ZM103.235 4.525C103.217 4.31757 103.161 4.15145 103.067 4.02571C102.973 3.90067 102.852 3.8067 102.705 3.74452C102.558 3.68234 102.395 3.64648 102.215 3.63717C102.035 3.62787 101.851 3.63173 101.66 3.64829L100.731 3.73L100.913 5.80637L101.804 5.72784C102.003 5.71059 102.191 5.677 102.37 5.62821C102.549 5.57941 102.707 5.50702 102.844 5.41102C102.981 5.31547 103.086 5.19564 103.157 5.05176C103.227 4.90764 103.254 4.73198 103.235 4.525H103.235Z" fill="white"/>
<path d="M37.7572 17.3068C37.5705 17.0846 37.3298 16.9112 37.0366 16.7864C36.743 16.6618 36.4622 16.6044 36.1933 16.6139C36.0551 16.6187 35.9152 16.6357 35.7738 16.6652C35.6323 16.6947 35.5054 16.7462 35.3941 16.8198C35.2827 16.8931 35.1902 16.9861 35.1165 17.0989C35.0432 17.2119 35.0095 17.3545 35.0156 17.5258C35.0206 17.6726 35.0554 17.7941 35.1196 17.8898C35.1841 17.9856 35.2766 18.0682 35.3973 18.1377C35.5176 18.2071 35.6605 18.2695 35.8256 18.3249C35.9905 18.3805 36.1757 18.4372 36.3812 18.4953C36.6777 18.5834 36.9863 18.681 37.3079 18.7879C37.6295 18.8955 37.9237 19.0425 38.1907 19.2291C38.4578 19.4159 38.6821 19.6514 38.8628 19.9351C39.0439 20.219 39.1419 20.5774 39.157 21.01C39.1744 21.5081 39.0975 21.942 38.9272 22.3117C38.7567 22.6817 38.5211 22.9903 38.2204 23.2377C37.9191 23.4855 37.5716 23.6734 37.177 23.8017C36.7822 23.9297 36.3733 24.0014 35.9504 24.0161C35.332 24.0379 34.7302 23.9503 34.145 23.7547C33.5595 23.5588 33.0693 23.2674 32.6729 22.8803L33.9912 21.4359C34.2117 21.6903 34.4978 21.8987 34.8498 22.0623C35.2019 22.2257 35.5488 22.3015 35.8903 22.2895C36.045 22.2841 36.1949 22.2625 36.3403 22.2244C36.4855 22.1869 36.6116 22.129 36.7191 22.0521C36.8262 21.9745 36.9104 21.8735 36.9712 21.7484C37.032 21.6239 37.0594 21.4759 37.0533 21.3045C37.0476 21.1411 37.002 21.0036 36.9167 20.8924C36.8312 20.781 36.7118 20.6806 36.5581 20.5924C36.4038 20.5036 36.2141 20.4244 35.9877 20.3545C35.7612 20.2848 35.504 20.2102 35.2162 20.1303C34.9367 20.0502 34.6624 19.9535 34.3937 19.8405C34.1249 19.727 33.8836 19.5786 33.6694 19.3934C33.4553 19.2091 33.2805 18.9822 33.1448 18.713C33.0089 18.4441 32.9347 18.1132 32.9211 17.7214C32.9044 17.2396 32.9874 16.8238 33.1708 16.4741C33.3542 16.1244 33.6005 15.8339 33.9105 15.6022C34.2198 15.3705 34.5724 15.1971 34.9677 15.0806C35.3625 14.9647 35.7634 14.8993 36.1702 14.8852C36.6585 14.8682 37.1598 14.9406 37.6745 15.1024C38.1892 15.2642 38.6437 15.5139 39.0385 15.8516L37.7572 17.3066V17.3068Z" fill="#F9423A"/>
<path d="M41.1171 23.6151L40.8154 14.9433L46.6243 14.74L46.6856 16.5036L42.8902 16.6366L42.9474 18.2777L46.5352 18.152L46.5936 19.83L43.0058 19.9558L43.0684 21.7564L47.0836 21.6157L47.1458 23.4038L41.1171 23.6153V23.6151Z" fill="#F9423A"/>
<path d="M53.6379 23.1762L51.6423 19.8L50.9309 19.825L51.0505 23.2667L49.0126 23.338L48.7109 14.6664L52.0059 14.5509C52.4207 14.5364 52.8266 14.565 53.2243 14.6369C53.6219 14.7086 53.981 14.8414 54.3012 15.0345C54.6216 15.2279 54.881 15.4884 55.08 15.8166C55.2788 16.145 55.3866 16.5583 55.4043 17.056C55.4246 17.644 55.2833 18.1435 54.9798 18.5548C54.6766 18.966 54.2471 19.2672 53.6915 19.458L56.0786 23.0904L53.6379 23.1759V23.1762ZM53.3433 17.1654C53.3363 16.9616 53.2872 16.7975 53.1972 16.6738C53.1072 16.5503 52.9935 16.4562 52.856 16.3917C52.7187 16.327 52.5658 16.2853 52.3974 16.2664C52.2289 16.248 52.067 16.2412 51.9119 16.2467L50.7959 16.2857L50.8662 18.3065L51.8594 18.2718C52.0313 18.2659 52.2065 18.2454 52.3856 18.2107C52.5643 18.176 52.7259 18.119 52.8707 18.0401C53.0154 17.9615 53.1321 17.8512 53.2214 17.7092C53.3105 17.5669 53.3514 17.3858 53.3437 17.1654H53.3433Z" fill="#F9423A"/>
<path d="M57.5917 23.0376L57.29 14.366L59.389 14.2925L59.6907 22.964L57.5917 23.0376Z" fill="#F9423A"/>
<path d="M61.9608 22.8845L61.6592 14.2127L67.4681 14.0094L67.5294 15.773L63.7337 15.906L63.7909 17.5471L67.3788 17.4214L67.4371 19.0994L63.8493 19.2252L63.9119 21.0258L67.9271 20.8851L67.9893 22.6732L61.9608 22.8847V22.8845Z" fill="#F9423A"/>
<path d="M74.1977 16.0297C74.0109 15.8075 73.7705 15.6339 73.477 15.5093C73.1835 15.3847 72.9026 15.3273 72.634 15.3366C72.4956 15.3413 72.3556 15.3584 72.2143 15.3881C72.0727 15.4174 71.9461 15.4689 71.8346 15.5424C71.7231 15.616 71.6306 15.709 71.5571 15.8218C71.4836 15.9348 71.4499 16.0771 71.456 16.2485C71.461 16.3953 71.4958 16.5167 71.5603 16.6127C71.6247 16.7085 71.717 16.7911 71.8377 16.8603C71.9583 16.93 72.101 16.9922 72.266 17.0478C72.4309 17.1034 72.6161 17.1601 72.8216 17.2182C73.1183 17.3061 73.427 17.4036 73.7483 17.5108C74.0699 17.6183 74.3641 17.7652 74.6312 17.952C74.8982 18.1387 75.1225 18.3743 75.3035 18.658C75.4844 18.9419 75.5823 19.3 75.5974 19.7326C75.6148 20.2308 75.5382 20.6649 75.3679 21.0346C75.1972 21.4046 74.9615 21.7132 74.661 21.9606C74.3598 22.2084 74.0122 22.3961 73.6176 22.5246C73.2228 22.6526 72.8137 22.7243 72.3909 22.7388C71.7726 22.7606 71.1706 22.6732 70.5854 22.4773C70.0002 22.2817 69.5097 21.9901 69.1133 21.6031L70.4316 20.1588C70.6523 20.413 70.9382 20.6213 71.2903 20.7852C71.6424 20.9486 71.989 21.0242 72.3309 21.0122C72.4856 21.0069 72.6353 20.9852 72.7807 20.9473C72.9259 20.9098 73.0521 20.8519 73.1597 20.7748C73.2667 20.6974 73.3508 20.5962 73.4116 20.4713C73.4725 20.3467 73.5 20.1985 73.4939 20.0272C73.4883 19.8638 73.4424 19.7265 73.3574 19.615C73.2719 19.5036 73.1527 19.4035 72.9987 19.315C72.8445 19.2263 72.6548 19.1473 72.4286 19.0772C72.2018 19.0077 71.9447 18.9331 71.6571 18.8532C71.3773 18.7731 71.103 18.6762 70.8344 18.5631C70.5657 18.4499 70.3242 18.3012 70.1103 18.1163C69.8959 17.932 69.7211 17.705 69.5857 17.4356C69.4498 17.1667 69.3754 16.836 69.3618 16.4443C69.3451 15.9625 69.4283 15.5467 69.6115 15.197C69.7946 14.8473 70.0413 14.5566 70.3511 14.3248C70.6605 14.0931 71.013 13.9197 71.4083 13.8033C71.8031 13.6873 72.2043 13.6222 72.6111 13.6079C73.0991 13.5909 73.6004 13.6633 74.1151 13.8253C74.6298 13.9871 75.0843 14.2366 75.4794 14.5745L74.1979 16.0295L74.1977 16.0297Z" fill="#F9423A"/>
<path fill-rule="evenodd" clip-rule="evenodd" d="M0.154297 21.0503C2.42355 27.8788 9.12297 32.517 16.5813 31.862C25.3094 31.0956 31.7659 23.3734 31.0023 14.6138C30.9849 14.4138 30.96 14.2166 30.9353 14.0192L23.2905 20.566L0.154297 21.0503Z" fill="#F9423A"/>
<path fill-rule="evenodd" clip-rule="evenodd" d="M4.19611 8.91033L4.35123 10.809L0.568929 9.84582C0.496792 10.0181 0.424656 10.1906 0.358398 10.3655L4.39872 11.3945L5.09838 19.9549L5.65037 19.9063L5.20105 14.4028L8.05213 14.1681C6.528 14.2936 5.19109 13.1561 5.06604 11.626C5.06446 11.6056 5.06401 11.5847 5.06288 11.5638L15.1774 14.1395C15.8895 14.5898 16.3894 15.3575 16.4638 16.2638C16.5699 17.5615 15.7683 18.7225 14.5917 19.1213L16.316 18.9699L18.2263 14.9159L22.4338 15.9878L26.3977 14.2482L30.3724 11.351C28.2359 4.30461 21.4193 -0.526719 13.8165 0.140742C8.00238 0.651154 3.19976 4.25013 0.864485 9.18449L4.19611 8.91033ZM26.089 13.7773L22.3854 15.4027L18.4676 14.4046L21.7373 7.46716L26.089 13.7773ZM7.59942 8.63028C7.60055 8.63028 7.60122 8.63028 7.60168 8.63005L21.0998 7.51958L18.3663 13.3198L15.224 13.5785L5.08685 10.9969C5.26866 9.74437 6.28965 8.73831 7.59942 8.63051V8.63028Z" fill="#00968F"/>
</g>
<defs>
<clipPath id="clip0_40002972_5414">
<rect width="106" height="32" fill="white"/>
</clipPath>
</defs>
</svg>
