<svg width="99" height="32" viewBox="0 0 99 32" fill="none" xmlns="http://www.w3.org/2000/svg">
<g clip-path="url(#clip0_40002470_18474)">
<path d="M56.8462 5.84705H30.3065L29.8965 17.5976H56.8465C60.089 17.5976 62.7175 14.9672 62.7175 11.7223C62.7175 8.47751 60.089 5.84705 56.8465 5.84705H56.8462Z" fill="#00968F"/>
<path d="M93.2534 17.1705H29.9128L29.6139 25.9631L24.1982 28.9211H93.2534C96.4122 28.9211 98.9729 26.2906 98.9729 23.0458C98.9729 19.801 96.4122 17.1705 93.2534 17.1705Z" fill="#00968F"/>
<path d="M33.9071 16.2849L32.9736 7.07922H34.3432L34.7211 11.7241C34.7641 12.3231 34.8051 12.919 34.8438 13.5115C34.8826 14.1044 34.9267 14.809 34.9762 15.6257H34.8115C34.8718 14.6429 34.917 13.919 34.9472 13.4536C34.9773 12.9881 35.0161 12.4128 35.0635 11.7275L35.4446 7.07944H37.0822L37.4698 11.7243C37.5129 12.332 37.5527 12.9134 37.5893 13.4682C37.6259 14.0229 37.6722 14.7422 37.7282 15.6259H37.5538C37.6141 14.6692 37.6593 13.9479 37.6895 13.4618C37.7196 12.9758 37.7573 12.3968 37.8025 11.7245L38.174 7.07965H39.5403L38.6229 16.2853H36.8141L36.3845 11.1073C36.3372 10.4564 36.2909 9.81873 36.2456 9.19359C36.2004 8.56889 36.1552 7.93299 36.11 7.28652H36.4168C36.3716 7.91575 36.3249 8.56006 36.2764 9.21945C36.228 9.87906 36.1821 10.5081 36.139 11.1073L35.7062 16.2853H33.9071V16.2849Z" fill="white"/>
<path d="M42.4282 16.3947C41.9114 16.3947 41.4976 16.271 41.1864 16.023C40.8752 15.7752 40.6392 15.3102 40.479 14.6282C40.3186 13.9461 40.2383 12.962 40.2383 11.6755C40.2383 10.3891 40.3186 9.40645 40.479 8.72766C40.6395 8.04887 40.8752 7.58643 41.1864 7.34077C41.4976 7.09512 41.9114 6.97229 42.4282 6.97229C42.945 6.97229 43.3591 7.09619 43.6703 7.34401C43.9814 7.59182 44.2183 8.05641 44.3809 8.73735C44.5435 9.4183 44.6246 10.4009 44.6246 11.6852C44.6246 12.9695 44.5435 13.9548 44.3809 14.6348C44.2183 15.3147 43.9814 15.778 43.6703 16.0247C43.3591 16.2715 42.9453 16.3947 42.4282 16.3947ZM42.425 15.0565C42.5994 15.0565 42.7344 14.9747 42.8303 14.8109C42.9261 14.6471 42.9971 14.3288 43.0434 13.8556C43.0897 13.3829 43.1128 12.6603 43.1128 11.6882C43.1128 10.7162 43.0897 9.98977 43.0434 9.51462C42.9971 9.03947 42.9261 8.71947 42.8303 8.55462C42.7344 8.38956 42.5994 8.30745 42.425 8.30745C42.2549 8.30745 42.1229 8.38869 42.0292 8.55139C41.9355 8.71429 41.8651 9.03257 41.8178 9.50665C41.7704 9.98072 41.7467 10.705 41.7467 11.6788C41.7467 12.6442 41.7704 13.3667 41.8178 13.8461C41.8651 14.3256 41.9362 14.6473 42.0309 14.8111C42.1257 14.9749 42.257 15.0565 42.425 15.0565Z" fill="white"/>
<path d="M45.5898 16.2849V7.07922H47.3857C48.0231 7.07922 48.5124 7.1665 48.8537 7.34104C49.195 7.5158 49.4325 7.78516 49.566 8.14912C49.6995 8.51329 49.7663 9.00892 49.7663 9.63599C49.7663 10.1661 49.7038 10.6085 49.5791 10.9628C49.4542 11.3174 49.2527 11.5855 48.9749 11.7676C48.6971 11.9497 48.3311 12.0408 47.8767 12.0408L47.8089 11.8437C48.33 11.8758 48.7202 11.9639 48.9799 12.107C49.2393 12.2505 49.4163 12.4636 49.5113 12.7472C49.606 13.0304 49.662 13.4361 49.6793 13.9641L49.7245 15.3182C49.7331 15.4669 49.7411 15.5975 49.7486 15.7093C49.7561 15.8211 49.768 15.9248 49.7841 16.0194C49.8003 16.1142 49.8246 16.2028 49.8569 16.2845H48.3808C48.3485 16.1681 48.3252 16.0556 48.3115 15.9468C48.2975 15.838 48.286 15.7026 48.2776 15.541C48.2776 15.5108 48.2764 15.4774 48.2742 15.4408C48.2721 15.4042 48.2699 15.3675 48.2677 15.3309L48.2322 14.1188C48.2193 13.7137 48.1898 13.4126 48.1435 13.2155C48.0972 13.0183 48.0117 12.8778 47.8868 12.7935C47.7619 12.7095 47.567 12.6675 47.3022 12.6675H46.4398V11.3972H47.3993C47.6276 11.3972 47.8035 11.353 47.9273 11.2646C48.0511 11.1763 48.1405 11.0257 48.1954 10.8121C48.2503 10.5986 48.2779 10.2917 48.2779 9.89091C48.2779 9.5095 48.252 9.2132 48.2003 9.00202C48.1487 8.79106 48.0593 8.63806 47.9323 8.54303C47.8052 8.44843 47.6243 8.40081 47.3896 8.40081H46.4624L47.0599 7.73194V16.2845H45.5903L45.5898 16.2849Z" fill="white"/>
<path d="M50.8235 16.2849V7.07922H52.2931V14.853H53.895V16.2849H50.8235Z" fill="white"/>
<path d="M54.7891 16.2849V7.07922H56.3459C57.0501 7.07922 57.6018 7.22942 58.0014 7.53024C58.4007 7.83085 58.6862 8.31246 58.8574 8.97509C59.0286 9.6375 59.1141 10.5421 59.1141 11.6885C59.1141 12.8349 59.0275 13.741 58.8541 14.4004C58.6806 15.06 58.3942 15.5386 57.995 15.8373C57.5955 16.1358 57.0415 16.2849 56.333 16.2849H54.7891ZM56.5203 14.8885C56.8003 14.8885 57.0173 14.7868 57.1711 14.5832C57.3248 14.3795 57.4344 14.049 57.4988 13.5911C57.5632 13.1332 57.5957 12.4992 57.5957 11.6887C57.5957 10.883 57.5641 10.2493 57.5005 9.78834C57.437 9.32698 57.327 8.99319 57.1711 8.78632C57.0148 8.57945 56.7936 8.47602 56.5074 8.47602H56.2587V14.8889H56.5203V14.8885Z" fill="white"/>
<path d="M34.0671 27.6791C33.5525 27.6791 33.1386 27.5558 32.8251 27.3091C32.5118 27.0621 32.2734 26.5973 32.1097 25.9142C31.9461 25.2311 31.8643 24.2463 31.8643 22.9599C31.8643 21.6734 31.9461 20.6966 32.1097 20.0167C32.2734 19.3371 32.5113 18.8736 32.8236 18.627C33.1358 18.3801 33.5471 18.2568 34.0574 18.2568C34.4881 18.2568 34.8423 18.3521 35.1201 18.5428C35.3979 18.7335 35.618 19.0839 35.7805 19.5933C35.9431 20.1029 36.0407 20.8296 36.0728 21.7736H34.6742C34.6548 21.1638 34.6218 20.7024 34.5755 20.39C34.5292 20.0777 34.4646 19.8663 34.3817 19.7566C34.2988 19.6467 34.1918 19.5918 34.0605 19.5918C33.8946 19.5918 33.7633 19.673 33.6664 19.8357C33.5695 19.9984 33.4963 20.3195 33.4468 20.799C33.3972 21.2786 33.3725 21.9988 33.3725 22.9599C33.3725 23.9209 33.3972 24.6437 33.4468 25.1221C33.4963 25.6007 33.5695 25.9233 33.6664 26.0903C33.7633 26.2571 33.8968 26.3407 34.0669 26.3407C34.2047 26.3407 34.3145 26.2857 34.3964 26.1758C34.4782 26.0659 34.5439 25.853 34.5934 25.5373C34.6427 25.2216 34.6731 24.7557 34.6838 24.1395H36.0824C36.0501 25.0898 35.9532 25.8216 35.7917 26.3342C35.6302 26.8473 35.4106 27.1996 35.1328 27.3912C34.855 27.5827 34.4997 27.6788 34.0669 27.6788L34.0671 27.6791Z" fill="white"/>
<path d="M37.1006 27.5692V18.3635H38.5702V27.5692H37.1006ZM37.7078 23.5385V22.1001H40.673V23.5385H37.7078ZM39.817 27.5692V18.3635H41.2867V27.5692H39.817Z" fill="white"/>
<path d="M42.0891 27.5692L43.4069 18.3635H45.4548L46.8372 27.5692H45.332L44.6828 22.2165C44.6397 21.848 44.6005 21.4823 44.565 21.119C44.5295 20.7559 44.495 20.3874 44.4616 20.0135C44.4283 19.6399 44.3964 19.2565 44.3662 18.8645L44.5116 18.8678C44.4771 19.2535 44.4442 19.6386 44.413 20.0232C44.3817 20.4079 44.3477 20.7796 44.3111 21.1384C44.2745 21.4972 44.2368 21.8566 44.1981 22.2165L43.5553 27.5692H42.0891ZM43.4907 25.5942V24.2625H45.4384V25.5942H43.4907Z" fill="white"/>
<path d="M47.6406 27.5692V18.3635H49.6723L50.3248 23.5514C50.3528 23.8251 50.3818 24.1046 50.412 24.3901C50.4421 24.6756 50.4721 24.9704 50.5024 25.2742C50.5173 25.421 50.5332 25.5701 50.5494 25.722C50.5653 25.8739 50.5802 26.0297 50.5929 26.189L50.4411 26.1924C50.4841 25.7054 50.5263 25.2529 50.567 24.8346C50.6079 24.4168 50.6532 23.9878 50.7027 23.5482L51.3487 18.3635H53.3806V27.5692H52.0563L52.0627 23.073C52.0627 22.4869 52.0645 21.896 52.0675 21.3C52.0707 20.7042 52.0754 20.0743 52.0819 19.4106L52.182 19.414C52.1282 19.8599 52.0739 20.2984 52.0188 20.7294C51.9639 21.1603 51.9124 21.5702 51.8638 21.9594C51.8153 22.3483 51.7716 22.7194 51.7331 23.0728L51.1387 27.569H49.8887L49.2879 23.0566C49.2621 22.8069 49.2345 22.5589 49.2055 22.3134C49.1764 22.0676 49.1471 21.82 49.1183 21.57C49.0894 21.32 49.0575 21.0625 49.0231 20.7975C48.9972 20.5841 48.9699 20.362 48.9406 20.1316C48.9115 19.901 48.8829 19.6606 48.8551 19.4106H48.9456C48.9434 19.5981 48.9427 19.7851 48.944 19.9715C48.9451 20.1579 48.9466 20.346 48.9488 20.5357C48.9509 20.958 48.952 21.3804 48.952 21.8027V23.073L48.9617 27.5692H47.6406Z" fill="white"/>
<path d="M54.583 27.5692V18.3635H56.408C57.0087 18.3635 57.4874 18.4756 57.8438 18.6997C58.2002 18.9238 58.4571 19.2524 58.6141 19.6855C58.7713 20.1187 58.8501 20.6649 58.8501 21.3241C58.8501 21.9833 58.768 22.5326 58.6044 22.9646C58.4407 23.3967 58.1748 23.7253 57.8066 23.9503C57.4383 24.1757 56.9452 24.2882 56.3272 24.2882H56.0529V27.569H54.5832L54.583 27.5692ZM56.3821 22.9052C56.6362 22.9052 56.8333 22.8453 56.973 22.7257C57.113 22.6061 57.2101 22.4328 57.2639 22.2053C57.3178 21.9779 57.3447 21.6844 57.3447 21.3243C57.3447 20.9623 57.3167 20.6677 57.2605 20.4404C57.2045 20.2128 57.1072 20.0396 56.9683 19.92C56.8294 19.8002 56.6341 19.7405 56.3821 19.7405H56.0527V22.9052H56.3821Z" fill="white"/>
<path d="M59.6943 27.5692V18.3635H61.164V27.5692H59.6943Z" fill="white"/>
<path d="M64.3355 27.679C63.8187 27.679 63.4046 27.5553 63.0934 27.3073C62.7823 27.0595 62.5465 26.5945 62.386 25.9125C62.2256 25.2304 62.1455 24.2463 62.1455 22.9598C62.1455 21.6734 62.2256 20.6908 62.386 20.0117C62.5465 19.3332 62.7823 18.8707 63.0934 18.6251C63.4044 18.3794 63.8184 18.2566 64.3355 18.2566C64.8525 18.2566 65.2661 18.3805 65.5775 18.6283C65.8885 18.8761 66.1255 19.3407 66.2881 20.0214C66.4507 20.7024 66.5319 21.6852 66.5319 22.9695C66.5319 24.2538 66.4507 25.2391 66.2881 25.9191C66.1255 26.5992 65.8887 27.0623 65.5775 27.309C65.2664 27.5558 64.8523 27.679 64.3355 27.679ZM64.332 26.3409C64.5067 26.3409 64.6417 26.259 64.7375 26.0952C64.8333 25.9314 64.9042 25.6132 64.9507 25.1399C64.997 24.6669 65.02 23.9444 65.02 22.9726C65.02 22.0007 64.997 21.2739 64.9507 20.7987C64.9042 20.3238 64.8333 20.0038 64.7375 19.8389C64.6417 19.6739 64.5067 19.5918 64.332 19.5918C64.1619 19.5918 64.0301 19.673 63.9364 19.8357C63.8426 19.9984 63.7721 20.3167 63.725 20.791C63.6774 21.265 63.6539 21.9893 63.6539 22.9631C63.6539 23.9285 63.6774 24.651 63.725 25.1305C63.7724 25.6099 63.8434 25.9316 63.938 26.0954C64.0327 26.2592 64.1643 26.3411 64.332 26.3411V26.3409Z" fill="white"/>
<path d="M67.4971 27.5692V18.3635H69.1024L70.2329 23.2183C70.3104 23.5824 70.4009 24.0205 70.5042 24.5323C70.6076 25.0441 70.7109 25.5651 70.8143 26.0952C70.8251 26.1448 70.8348 26.1933 70.8434 26.2407C70.852 26.2881 70.8595 26.3344 70.8658 26.3799H70.6235C70.6214 26.2916 70.6188 26.2036 70.6155 26.1164C70.6123 26.0291 70.6097 25.9414 70.6076 25.8528C70.5904 25.3548 70.5768 24.8767 70.5671 24.4177C70.5574 23.9587 70.5514 23.5611 70.5492 23.2249L70.5268 18.3635H71.8673V27.5692H70.2523L69.2477 23.1862C69.1724 22.8306 69.0959 22.4658 69.0186 22.0919C68.9411 21.7182 68.8597 21.3218 68.7747 20.9024C68.6894 20.4833 68.5987 20.0336 68.5016 19.5528H68.7406C68.76 20.0247 68.7755 20.4801 68.7874 20.9186C68.7992 21.3571 68.808 21.7601 68.8132 22.1272C68.8186 22.4947 68.8225 22.8433 68.8246 23.173L68.8375 27.569L67.4971 27.5692Z" fill="white"/>
<path d="M74.9636 27.6758C74.4597 27.6758 74.0587 27.595 73.7605 27.4334C73.462 27.2718 73.2355 26.983 73.0805 26.5669C72.9254 26.151 72.8395 25.5574 72.8223 24.7859H74.2209C74.223 25.2384 74.245 25.5811 74.287 25.814C74.329 26.0465 74.3942 26.2066 74.4825 26.2939C74.5706 26.3812 74.6944 26.4249 74.8539 26.4249C74.9961 26.4249 75.1102 26.3915 75.1963 26.3245C75.2825 26.2577 75.3434 26.1629 75.3789 26.0403C75.4145 25.9174 75.4323 25.7645 75.4323 25.5813C75.4323 25.2837 75.3951 25.0264 75.3208 24.8088C75.2463 24.5909 75.1453 24.3972 75.0172 24.2269C74.8888 24.0567 74.7056 23.8466 74.4663 23.5966L73.998 23.1473C73.7504 22.9036 73.5462 22.6683 73.3858 22.441C73.2254 22.2136 73.0972 21.9378 73.0014 21.6135C72.9056 21.2892 72.8578 20.8998 72.8578 20.4451C72.8578 19.971 72.9396 19.5711 73.1033 19.2459C73.2669 18.9208 73.5025 18.6745 73.8107 18.5072C74.1186 18.3404 74.4887 18.2568 74.9218 18.2568C75.3998 18.2568 75.7857 18.3456 76.0796 18.5234C76.3736 18.7012 76.5911 18.9906 76.7321 19.3912C76.8731 19.792 76.9436 20.3307 76.9436 21.0073H75.5514C75.545 20.6173 75.5249 20.3163 75.4918 20.104C75.4584 19.892 75.4 19.74 75.3171 19.6482C75.2342 19.5567 75.1197 19.511 74.973 19.511C74.8352 19.511 74.7239 19.5442 74.6388 19.6112C74.5536 19.678 74.4911 19.7739 74.4515 19.8989C74.4114 20.0238 74.3918 20.1779 74.3918 20.3611C74.3918 20.6046 74.4246 20.8237 74.4902 21.019C74.5559 21.2142 74.6511 21.3967 74.776 21.5667C74.9009 21.7372 75.0721 21.9331 75.2898 22.155L75.7708 22.6334C76.0357 22.9051 76.2515 23.1642 76.4186 23.4107C76.5852 23.6576 76.72 23.949 76.8223 24.2851C76.9246 24.6215 76.9759 25.0158 76.9759 25.4682C76.9759 25.981 76.8945 26.4012 76.7319 26.7288C76.5693 27.0565 76.3382 27.2961 76.0389 27.4481C75.7396 27.6 75.3811 27.676 74.9633 27.676L74.9636 27.6758Z" fill="white"/>
<path d="M77.9561 27.5692V18.3635H79.4257V27.5692H77.9561ZM78.5633 23.5385V22.1001H81.5285V23.5385H78.5633ZM80.6725 27.5692V18.3635H82.1422V27.5692H80.6725Z" fill="white"/>
<path d="M83.334 27.5692V18.3635H84.8036V27.5692H83.334Z" fill="white"/>
<path d="M85.9961 27.5692V18.3635H87.8211C88.4218 18.3635 88.9005 18.4756 89.2569 18.6997C89.6133 18.9238 89.8702 19.2524 90.0272 19.6855C90.1844 20.1187 90.2632 20.6649 90.2632 21.3241C90.2632 21.9833 90.1811 22.5326 90.0175 22.9646C89.8538 23.3967 89.5879 23.7253 89.2197 23.9503C88.8514 24.1757 88.3583 24.2882 87.7403 24.2882H87.466V27.569H85.9963L85.9961 27.5692ZM87.7952 22.9052C88.0493 22.9052 88.2463 22.8453 88.3861 22.7257C88.5261 22.6061 88.6232 22.4328 88.677 22.2053C88.7308 21.9779 88.7578 21.6844 88.7578 21.3243C88.7578 20.9623 88.7298 20.6677 88.6736 20.4404C88.6176 20.2128 88.5202 20.0396 88.3814 19.92C88.2425 19.8002 88.0472 19.7405 87.7952 19.7405H87.4658V22.9052H87.7952Z" fill="white"/>
<path d="M93.1188 27.6758C92.6149 27.6758 92.214 27.595 91.9158 27.4334C91.6173 27.2718 91.3908 26.983 91.2357 26.5669C91.0807 26.151 90.9948 25.5574 90.9775 24.7859H92.3761C92.3783 25.2384 92.4003 25.5811 92.4422 25.814C92.4842 26.0465 92.5495 26.2066 92.6378 26.2939C92.7258 26.3812 92.8497 26.4249 93.0092 26.4249C93.1513 26.4249 93.2655 26.3915 93.3516 26.3245C93.4377 26.2577 93.4987 26.1629 93.5342 26.0403C93.5697 25.9174 93.5876 25.7645 93.5876 25.5813C93.5876 25.2837 93.5504 25.0264 93.4761 24.8088C93.4016 24.5909 93.3006 24.3972 93.1724 24.2269C93.0441 24.0567 92.8609 23.8466 92.6216 23.5966L92.1533 23.1473C91.9056 22.9036 91.7015 22.6683 91.5411 22.441C91.3806 22.2136 91.2525 21.9378 91.1567 21.6135C91.0609 21.2892 91.0131 20.8998 91.0131 20.4451C91.0131 19.971 91.0949 19.5711 91.2585 19.2459C91.4222 18.9208 91.6578 18.6745 91.9659 18.5072C92.2739 18.3404 92.644 18.2568 93.0771 18.2568C93.5551 18.2568 93.941 18.3456 94.2349 18.5234C94.5288 18.7012 94.7463 18.9906 94.8874 19.3912C95.0284 19.792 95.0988 20.3307 95.0988 21.0073H93.7067C93.7002 20.6173 93.6802 20.3163 93.647 20.104C93.6137 19.892 93.5553 19.74 93.4724 19.6482C93.3895 19.5567 93.2749 19.511 93.1283 19.511C92.9905 19.511 92.8792 19.5442 92.7941 19.6112C92.7088 19.678 92.6464 19.7739 92.6068 19.8989C92.5667 20.0238 92.5471 20.1779 92.5471 20.3611C92.5471 20.6046 92.5798 20.8237 92.6455 21.019C92.7112 21.2142 92.8064 21.3967 92.9313 21.5667C93.0562 21.7372 93.2274 21.9331 93.4451 22.155L93.9261 22.6334C94.191 22.9051 94.4067 23.1642 94.5738 23.4107C94.7405 23.6576 94.8753 23.949 94.9776 24.2851C95.0799 24.6215 95.1311 25.0158 95.1311 25.4682C95.1311 25.981 95.0497 26.4012 94.8872 26.7288C94.7246 27.0565 94.4935 27.2961 94.1942 27.4481C93.8949 27.6 93.5364 27.676 93.1186 27.676L93.1188 27.6758Z" fill="white"/>
<path fill-rule="evenodd" clip-rule="evenodd" d="M27.6287 25.2231L28.7032 12.9316L23.2746 17.567L0.467453 18.043L0.0507812 22.8088L13.1431 31.9827L27.6287 25.2231Z" fill="#F9423A"/>
<path d="M5.28801 7.15317L2.41351 6.42331L1.5498 6.82627L5.33991 7.78864L6.10004 17.062L6.70082 17.0094L6.21309 11.0542L9.3167 10.7994C7.65755 10.9356 6.20232 9.7011 6.06623 8.04034C6.06451 8.01814 6.06408 7.99551 6.06278 7.97288L17.0728 10.7684C17.848 11.2571 18.3922 12.0907 18.4732 13.0741C18.5864 14.4565 17.7483 15.6962 16.5065 16.1509L18.3211 15.9921L20.3916 11.611L24.9715 12.7744L28.8671 11.0697L28.927 10.3855L24.9194 12.1391L20.6547 11.0557L23.3636 5.32453L22.8625 4.97351L20.5442 9.87823L17.1237 10.159L6.08906 7.3568C6.28695 5.9975 7.39829 4.90519 8.82423 4.7884C8.82553 4.7884 8.82617 4.78819 8.82682 4.78819L21.1551 3.7769L15.9307 0.115967L5.12522 5.15818L5.28887 7.15317H5.28801Z" fill="#00968F"/>
</g>
<defs>
<clipPath id="clip0_40002470_18474">
<rect width="99" height="32" fill="white"/>
</clipPath>
</defs>
</svg>
