<svg width="10" height="16" viewBox="0 0 10 16" fill="none" xmlns="http://www.w3.org/2000/svg">
<path d="M4.13953 16C3.76613 15.9578 3.38899 15.9034 3.01238 15.8773C2.75925 15.8426 2.5118 15.7724 2.27678 15.6685C2.03927 15.5777 1.8099 15.4653 1.59131 15.3326C1.39499 15.2162 1.20755 15.0842 1.03067 14.9379C0.921934 14.8437 0.825776 14.7349 0.744754 14.6142C0.611727 14.4348 0.489856 14.2468 0.379885 14.0512C0.213698 13.7283 0.0986004 13.3796 0.0390199 13.0186C-0.0119099 12.6934 -0.0129905 12.3619 0.035819 12.0364C0.0694254 11.7494 0.105165 11.4618 0.162776 11.1792C0.222609 10.8962 0.33201 10.627 0.485505 10.3852C0.570854 10.2476 0.645535 10.1021 0.727684 9.96163C0.846256 9.72899 1.00069 9.51818 1.18484 9.33758C1.45582 9.10051 1.7076 8.8379 1.98499 8.61582C2.15435 8.49301 2.33674 8.39092 2.52856 8.31157C2.68101 8.23612 2.84092 8.17822 3.00545 8.1389C3.40385 8.01851 3.81761 7.96234 4.23235 7.97234C4.42772 7.98591 4.62375 7.98591 4.81913 7.97234C5.04264 7.96401 5.05384 7.94403 5.13065 7.72194C5.20747 7.49986 5.29815 7.27279 5.3851 7.04904C5.5238 6.68927 5.66195 6.32728 5.80598 5.97084C5.92334 5.67825 6.05136 5.3901 6.16818 5.09695C6.35915 4.61837 6.54159 4.1359 6.73363 3.65731C6.8003 3.49075 6.88779 3.33197 6.95073 3.16374C7.02275 2.97108 7.07769 2.77177 7.1401 2.57634C7.15658 2.54069 7.16979 2.50352 7.17958 2.4653C7.1892 2.42617 7.18484 2.38473 7.16731 2.3487C7.15203 2.33741 7.13449 2.32989 7.116 2.32671C7.09751 2.32354 7.07857 2.32479 7.06062 2.33038C6.86858 2.40256 6.68082 2.48639 6.48878 2.55746C6.30513 2.63564 6.1152 2.69676 5.9212 2.74012C5.77067 2.7644 5.61673 2.7503 5.47259 2.69904C5.39323 2.66554 5.32492 2.60877 5.27597 2.53564C5.22701 2.46251 5.19951 2.37616 5.1968 2.28708C5.17399 2.14844 5.19596 2.00585 5.25927 1.88159C5.32259 1.75733 5.42367 1.65841 5.54673 1.60029C5.7377 1.49813 5.92014 1.37821 6.10524 1.26717C6.36716 1.10949 6.62587 0.94793 6.89045 0.79636C7.10383 0.674215 7.32734 0.565951 7.54445 0.448249C7.77596 0.323328 8.00533 0.192856 8.23791 0.0684906C8.36375 5.38168e-05 8.50937 -0.0178504 8.64707 0.0181838C8.78477 0.054218 8.90494 0.141676 8.98472 0.263922C9.17557 0.509688 9.30905 0.79818 9.37466 1.10672C9.47708 1.49147 9.57096 1.87845 9.67498 2.26265C9.7534 2.55191 9.84835 2.83617 9.92516 3.12543C9.98226 3.28827 10.0071 3.46145 9.99824 3.63455C9.99329 3.69147 9.9732 3.74583 9.94022 3.79153C9.90724 3.83723 9.86269 3.87246 9.81154 3.89327C9.70401 3.94165 9.59286 3.98083 9.47921 4.01042C9.38179 4.0388 9.27778 4.02947 9.18647 3.98414C9.09515 3.93881 9.02272 3.86057 8.98259 3.76391C8.88337 3.51352 8.80762 3.25313 8.726 2.99551C8.68173 2.8556 8.64919 2.71181 8.60385 2.57245C8.59318 2.53914 8.5505 2.51693 8.52437 2.4875C8.49195 2.51451 8.46371 2.54653 8.44062 2.58244C8.41805 2.64609 8.39882 2.71095 8.38301 2.77676C8.27632 3.11599 8.17336 3.45578 8.06294 3.79334C8.03361 3.88384 7.98186 3.96656 7.94452 4.05484C7.82076 4.34743 7.69701 4.64002 7.57592 4.93372C7.45038 5.23834 7.32592 5.5437 7.20251 5.8498C7.12623 6.04079 7.05955 6.23511 6.98114 6.42499C6.87072 6.68983 6.7523 6.95077 6.64027 7.21505C6.52238 7.49265 6.4045 7.77469 6.29354 8.05729C6.23646 8.20108 6.19432 8.35154 6.14631 8.50145C6.14009 8.51687 6.13686 8.53341 6.13679 8.55013C6.13672 8.56685 6.13983 8.58342 6.14592 8.59889C6.15202 8.61437 6.16098 8.62844 6.17231 8.6403C6.18364 8.65215 6.1971 8.66157 6.21193 8.66801C6.34528 8.74962 6.48184 8.82735 6.61307 8.91396C6.83824 9.0643 7.03675 9.25401 7.19985 9.47472C7.3585 9.68343 7.50475 9.90203 7.6378 10.1293C7.73788 10.324 7.8278 10.5242 7.90718 10.7289C8.02983 11.0045 8.10908 11.2988 8.14189 11.6006C8.16902 11.9166 8.17829 12.234 8.16963 12.5511C8.16574 12.8694 8.11593 13.1853 8.02187 13.4883C7.95776 13.7789 7.84295 14.0547 7.68314 14.3022C7.57325 14.4449 7.44096 14.5687 7.3188 14.7008C7.26173 14.7619 7.20251 14.8208 7.1481 14.884C6.94043 15.094 6.68855 15.2507 6.4125 15.3415C6.26687 15.4032 6.12764 15.4803 5.98575 15.5475C5.82572 15.6214 5.66942 15.7002 5.50566 15.7607C5.3887 15.7987 5.26874 15.8258 5.14719 15.8418C4.849 15.8901 4.54974 15.9339 4.25049 15.9778C4.21497 15.9803 4.17932 15.9803 4.1438 15.9778L4.13953 16ZM4.20834 14.612C4.2969 14.6064 4.36518 14.6064 4.43292 14.5976C4.87023 14.5501 5.29273 14.4058 5.67209 14.1745C5.90505 14.0579 6.11368 13.8947 6.28607 13.6942C6.42695 13.5326 6.53895 13.3461 6.6168 13.1435C6.66375 12.9847 6.73469 12.8331 6.79337 12.6782C6.81819 12.6215 6.83749 12.5624 6.85098 12.5017C6.94713 11.9763 6.87204 11.4325 6.63761 10.9565C6.48938 10.6428 6.2972 10.3537 6.06737 10.0988C5.95298 9.93792 5.78925 9.82255 5.60328 9.77175C5.50779 9.75565 5.40537 9.73899 5.38083 9.61074C5.38083 9.6013 5.3675 9.59242 5.35843 9.58687C5.21461 9.47697 5.04225 9.41485 4.86394 9.40865C4.74765 9.41364 4.63136 9.42697 4.51454 9.43307C4.30116 9.44418 4.08779 9.43307 3.87922 9.46583C3.47305 9.52441 3.08088 9.66109 2.72273 9.86891C2.51475 9.9931 2.31831 10.1371 2.13595 10.2992C2.00613 10.4148 1.89089 10.5471 1.79295 10.6928C1.73378 10.7947 1.68939 10.9051 1.66119 11.0204C1.57156 11.2712 1.5304 11.538 1.5401 11.8055C1.55647 12.037 1.58945 12.2669 1.63879 12.4933C1.69236 12.7758 1.80954 13.0411 1.98072 13.2673C2.08741 13.4044 2.18929 13.5505 2.30452 13.6815C2.44746 13.8716 2.62604 14.0295 2.82942 14.1456C2.97985 14.2178 3.12601 14.3005 3.2759 14.3755C3.57004 14.5133 3.88621 14.5932 4.20834 14.6109V14.612Z" fill="#71717A"/>
</svg>
