<svg width="8" height="16" viewBox="0 0 8 16" fill="none" xmlns="http://www.w3.org/2000/svg">
<path d="M2.7889 12.2232C3.06003 12.1899 3.3317 12.1588 3.60282 12.1227C3.62566 12.1223 3.64812 12.1168 3.66855 12.1065C3.68898 12.0962 3.70686 12.0815 3.72087 12.0633C3.73489 12.0451 3.74467 12.024 3.74952 12.0015C3.75436 11.979 3.75413 11.9558 3.74885 11.9334C3.70863 11.4114 3.7009 10.8874 3.72571 10.3645C3.72325 10.091 3.70485 9.81796 3.6706 9.5467C3.63296 9.17339 3.62449 8.79768 3.64525 8.42303C3.65683 8.2637 3.61274 8.21151 3.45238 8.20096C3.01895 8.16894 2.59884 8.0359 2.22517 7.81235C1.78031 7.52066 1.37785 7.16808 1.02936 6.76474C0.771396 6.49415 0.558848 6.18308 0.40005 5.84371C0.297913 5.61601 0.208681 5.38265 0.132784 5.14476C0.0840265 4.99277 0.0451859 4.83773 0.0165106 4.68063C0.00152788 4.59809 -0.00328438 4.51399 0.00218297 4.43025C0.0170616 4.11381 0.0302873 3.7968 0.0572894 3.48091C0.102582 2.97434 0.28584 2.49021 0.58686 2.08189C0.720768 1.89368 0.833736 1.68994 0.953867 1.4923C1.11296 1.23036 1.32653 1.00629 1.57987 0.83553C1.85253 0.646818 2.1409 0.482244 2.44174 0.34365C2.92902 0.134024 3.45074 0.0174943 3.9803 0C4.23383 0.00633147 4.4859 0.0407745 4.73195 0.102706C5.14811 0.171551 5.55372 0.294143 5.93878 0.467453C6.03705 0.516404 6.13106 0.573604 6.21982 0.638445C6.53771 0.859813 6.82639 1.12098 7.07892 1.41568C7.24355 1.60635 7.39525 1.80796 7.533 2.01915C7.60327 2.14505 7.66282 2.27673 7.71099 2.41277C7.72807 2.45218 7.74626 2.4916 7.75948 2.53268C7.87192 2.86424 7.94715 3.20744 7.98377 3.55586C8.0153 3.89491 8.00084 4.23671 7.94078 4.57182C7.84833 5.07742 7.67586 5.56478 7.42995 6.01526C7.16911 6.50528 6.80474 6.93168 6.36254 7.26439C6.13909 7.43376 5.8943 7.57247 5.63459 7.67688C5.55248 7.71019 5.47809 7.76349 5.39763 7.80124C5.28775 7.85705 5.17457 7.906 5.05873 7.94781C4.97221 7.97612 4.91931 8.01887 4.92041 8.11047C4.92041 8.28813 4.92647 8.46523 4.93694 8.64232C4.95458 8.93268 4.97993 9.22192 4.99811 9.51227C5.0196 9.84538 5.03999 10.1785 5.05322 10.5116C5.06479 10.7642 5.06699 11.0173 5.07361 11.2705C5.07857 11.462 5.08187 11.6541 5.08849 11.8457C5.0864 11.8699 5.0898 11.8944 5.09842 11.9171C5.10703 11.9399 5.12065 11.9604 5.13825 11.9771C5.15584 11.9938 5.17697 12.0063 5.20003 12.0136C5.2231 12.021 5.24751 12.0229 5.27144 12.0194C5.37546 12.0169 5.47899 12.0043 5.58058 11.9817C5.94026 11.9024 6.31639 11.9635 6.63311 12.1527C6.74311 12.2189 6.82918 12.3189 6.87875 12.438C6.92833 12.557 6.9388 12.6889 6.90864 12.8144C6.8835 12.9153 6.8465 13.0128 6.79843 13.1048C6.75466 13.1705 6.69541 13.2242 6.62598 13.2612C6.55655 13.2982 6.47911 13.3174 6.40057 13.3169C6.20163 13.3463 5.99994 13.3518 5.7988 13.3668C5.63789 13.3785 5.47588 13.3829 5.31552 13.4012C5.20035 13.414 5.16178 13.4701 5.17114 13.5878C5.18437 13.7588 5.21247 13.9292 5.21523 14.1002C5.22019 14.4333 5.21523 14.762 5.20972 15.0928C5.20141 15.1623 5.19883 15.2323 5.20201 15.3021C5.20857 15.3998 5.19404 15.4977 5.15941 15.5891C5.12478 15.6806 5.07088 15.7634 5.00142 15.8318C4.94192 15.8987 4.86576 15.9485 4.78081 15.9759C4.69586 16.0033 4.60518 16.0074 4.51814 15.9878C4.43026 15.9781 4.34523 15.9506 4.26815 15.907C4.19107 15.8634 4.12353 15.8046 4.06957 15.7341C4.00088 15.6408 3.95175 15.5345 3.92519 15.4215C3.87711 15.1351 3.84035 14.847 3.81498 14.5577C3.78522 14.2568 3.76869 13.9547 3.7461 13.6533C3.74621 13.6329 3.74197 13.6128 3.73367 13.5942C3.72538 13.5756 3.71321 13.559 3.698 13.5456C3.6828 13.5322 3.6649 13.5222 3.64553 13.5164C3.62616 13.5105 3.60577 13.5089 3.58574 13.5117C3.39838 13.5117 3.21102 13.5023 3.02366 13.5117C2.8363 13.5212 2.65665 13.5489 2.47259 13.555C2.33194 13.5661 2.19044 13.5575 2.05213 13.5295C1.96439 13.4934 1.88935 13.4317 1.83667 13.3524C1.73725 13.2515 1.66879 13.124 1.63947 12.985C1.61015 12.8459 1.62122 12.7013 1.67135 12.5685C1.70764 12.4758 1.76882 12.395 1.84803 12.3353C1.92725 12.2756 2.02138 12.2393 2.11991 12.2304C2.33703 12.2026 2.55691 12.1982 2.77568 12.1838L2.7889 12.2232ZM3.88056 1.2186C3.78026 1.22803 3.67997 1.24191 3.57913 1.24525C3.21452 1.27742 2.86841 1.42116 2.58722 1.65718C2.37989 1.82083 2.20636 2.02376 2.07638 2.25454C1.90655 2.54788 1.76396 2.85638 1.65041 3.17612C1.57734 3.40568 1.53256 3.64341 1.51705 3.88397C1.49967 4.06031 1.49525 4.23771 1.50383 4.41471C1.49097 4.66577 1.53921 4.9162 1.64435 5.1442C1.72921 5.30464 1.81848 5.46342 1.91657 5.61665C2.07707 5.88947 2.291 6.12652 2.54533 6.31339C2.83152 6.53917 3.14828 6.72256 3.486 6.85801C3.67646 6.93508 3.88034 6.97284 4.08555 6.96904C4.25087 6.95516 4.41619 6.93462 4.58482 6.92019C4.90212 6.88568 5.20209 6.75699 5.44668 6.55045C5.58665 6.43941 5.71615 6.3145 5.85281 6.19847C6.07011 6.01928 6.24247 5.79105 6.35593 5.53226C6.42371 5.37293 6.46228 5.19916 6.52731 5.04038C6.63969 4.73931 6.68722 4.41759 6.66673 4.0966C6.64975 3.57906 6.55212 3.06742 6.37742 2.58043C6.24356 2.23161 5.99908 1.93711 5.68198 1.74268C5.40713 1.57081 5.10581 1.44623 4.79036 1.37404C4.49524 1.28195 4.18931 1.22968 3.88056 1.2186Z" fill="#71717A"/>
</svg>
